<?xml version="1.0" encoding="utf-8"?>
<!-- Generator: Adobe Illustrator 24.0.1, SVG Export Plug-In . SVG Version: 6.00 Build 0)  -->
<svg version="1.1" id="Layer_1" xmlns="http://www.w3.org/2000/svg" xmlns:xlink="http://www.w3.org/1999/xlink" x="0px" y="0px"
	 width="20px" height="20px" viewBox="0 0 20 20" style="enable-background:new 0 0 20 20;" xml:space="preserve">
<g>
	<path d="M3.7,2c0.9,0,1.6,0.7,1.6,1.6v12.7c0,0.9-0.7,1.6-1.6,1.6s-1.6-0.7-1.6-1.6V3.6C2.1,2.7,2.8,2,3.7,2 M3.7,1
		C2.3,1,1.1,2.2,1.1,3.6v12.7c0,1.5,1.2,2.6,2.6,2.6s2.6-1.2,2.6-2.6V3.6C6.3,2.2,5.2,1,3.7,1L3.7,1z"/>
</g>
<g>
	<path d="M10,2c0.9,0,1.6,0.7,1.6,1.6v12.7c0,0.9-0.7,1.6-1.6,1.6H10c-0.9,0-1.6-0.7-1.6-1.6V3.6C8.3,2.7,9.1,2,10,2L10,2 M10,1
		L10,1C8.5,1,7.3,2.2,7.3,3.6v12.7c0,1.5,1.2,2.6,2.6,2.6H10c1.5,0,2.6-1.2,2.6-2.6V3.6C12.7,2.2,11.5,1,10,1L10,1z"/>
</g>
<path d="M16.4,19L16.4,19c-1.5,0-2.7-1.2-2.7-2.6V3.6c0-1.5,1.2-2.6,2.6-2.6h0.1C17.8,1,19,2.2,19,3.6v12.7C19,17.8,17.8,19,16.4,19
	z"/>
</svg>
