<?xml version="1.0" encoding="utf-8"?>
<!-- Generator: Adobe Illustrator 23.0.1, SVG Export Plug-In . SVG Version: 6.00 Build 0)  -->
<svg version="1.1" id="Слой_1" xmlns="http://www.w3.org/2000/svg" xmlns:xlink="http://www.w3.org/1999/xlink" x="0px" y="0px"
	 viewBox="0 0 90 390" style="enable-background:new 0 0 90 390;" xml:space="preserve">
<g>
	<g>
		<path d="M45,0C20.2,0,0,20.2,0,45c0,24.8,20.2,45,45,45c24.8,0,45-20.2,45-45C90,20.2,69.8,0,45,0z"/>
	</g>
</g>
<g>
	<g>
		<path d="M45,150c-24.8,0-45,20.2-45,45c0,24.8,20.2,45,45,45c24.8,0,45-20.2,45-45C90,170.2,69.8,150,45,150z"/>
	</g>
</g>
<g>
	<g>
		<path d="M45,300c-24.8,0-45,20.2-45,45c0,24.8,20.2,45,45,45c24.8,0,45-20.2,45-45C90,320.2,69.8,300,45,300z"/>
	</g>
</g>
</svg>
