<svg xmlns="http://www.w3.org/2000/svg" width="115.767" height="122.798" viewBox="0 0 115.767 122.798">
  <g id="Group_1321" data-name="Group 1321" transform="translate(-888.424 -206.557)">
    <g id="Group_1298" data-name="Group 1298" transform="translate(888.424 206.557)">
      <path id="Path_5276" data-name="Path 5276" d="M930.832,303.905c-.161.684-14.236,8-19.006,8.33,0,0,5.134-14.395,2.986-11.5-5.224,7.036-20.845,2.805-20.845,2.805s13.285-7.822,9.982-14.319c0,0-11.147,5.087-14.991,4.548s14.472-7.127,9.69-19.077,2.337-38.155,19.174-46.845,9.467-21.288,9.467-21.288,7.585,13.823,6.66,14.69,10.741-5.787,10.939-9.712,2.241,7.384,2.241,7.384,29.392-1.848,38.639,18.436,14.63,24.071,18.035,24.835-16.672.825-19.409-4,3.11,31.087,10.938,35.584-19.933-1.439-20.8-1.926S930.832,303.905,930.832,303.905Z" transform="translate(-888.424 -206.557)" fill="#2c2826" fill-rule="evenodd"/>
    </g>
    <g id="Group_1299" data-name="Group 1299" transform="translate(932.18 298.687)">
      <path id="Path_5277" data-name="Path 5277" d="M1003.032,447.367c.966,2.919.323,27.268.323,27.268s7.568,3.263,13.043,1.527c4.407-1.4,5.666-3.483,5.666-3.483a80.571,80.571,0,0,1,.277-18.437C1023.656,443.827,1003.032,447.367,1003.032,447.367Z" transform="translate(-1002.647 -446.392)" fill="#fff" fill-rule="evenodd"/>
      <path id="Path_5278" data-name="Path 5278" d="M1012.121,476.43a27.388,27.388,0,0,1-9.533-2.072.385.385,0,0,1-.233-.364c.222-8.4.444-24.878-.3-27.137a.385.385,0,0,1,.3-.5c.546-.094,13.428-2.244,18.129,2.253a5.638,5.638,0,0,1,1.628,5.05,80.986,80.986,0,0,0-.278,18.34.387.387,0,0,1-.052.248c-.055.09-1.386,2.227-5.88,3.652A12.549,12.549,0,0,1,1012.121,476.43Zm-8.989-2.682c1.318.525,7.8,2.919,12.535,1.417,3.643-1.155,5.067-2.8,5.383-3.217a82.761,82.761,0,0,1,.3-18.385,4.847,4.847,0,0,0-1.4-4.4c-3.975-3.8-14.818-2.443-17.058-2.115C1003.674,451.163,1003.2,471.069,1003.132,473.748Z" transform="translate(-1002.032 -445.761)" fill="#2c2826"/>
    </g>
    <g id="Group_1300" data-name="Group 1300" transform="translate(912.671 246.66)">
      <path id="Path_5279" data-name="Path 5279" d="M958.75,355.41s.714,9.869,8.405,15.755,15.079,9.243,27.848,8.171,23.443-13.209,27.754-29.067,1.906-21.872,1.906-21.872-20.443-15.014-21.8-15.435-35.47-1.192-35.812-1.273-13.43,14.182-13.43,14.182l-.681,10.82s-2.172,13.8,2.117,16.951S958.75,355.41,958.75,355.41Z" transform="translate(-952.002 -311.301)" fill="#fff"/>
      <path id="Path_5280" data-name="Path 5280" d="M989.822,379.3c-10.256,0-16.767-3.28-23.524-8.451-6.594-5.045-8.157-13.058-8.479-15.381-.517-.084-1.5-.583-3.61-2.135-4.427-3.249-2.36-16.749-2.27-17.322l.677-10.785a.381.381,0,0,1,.1-.236c.033-.036,3.31-3.607,6.588-7.123,6.783-7.275,6.9-7.249,7.213-7.173.2.019,3.45.108,7.565.221,13.8.379,27.352.772,28.273,1.059,1.378.428,19.816,13.952,21.914,15.493a.386.386,0,0,1,.13.167,15.969,15.969,0,0,1,.691,5.126c.057,3.206-.344,8.755-2.583,16.991-4.562,16.78-15.589,28.3-28.094,29.349C992.8,379.235,991.274,379.3,989.822,379.3ZM958.536,355c.174,1.532,1.43,10.033,8.23,15.236,7.567,5.791,14.821,9.165,27.582,8.094,12.178-1.022,22.939-12.321,27.415-28.784,3.925-14.436,2.223-20.7,1.953-21.531-8.189-6.013-20.628-15-21.589-15.307-.961-.281-18.594-.765-28.066-1.025-5.39-.148-7.046-.2-7.537-.224-.973.785-8.285,8.651-13.149,13.95L952.7,336.1c-.025.171-2.091,13.644,1.961,16.617a14.719,14.719,0,0,0,3.1,1.947.385.385,0,0,1,.716-.023A.717.717,0,0,1,958.536,355Zm7.806-43.557a.354.354,0,0,0,.078.01A.531.531,0,0,1,966.342,311.444Z" transform="translate(-951.379 -310.68)" fill="#2c2826"/>
    </g>
    <g id="Group_1301" data-name="Group 1301" transform="translate(901.83 237.274)">
      <path id="Path_5281" data-name="Path 5281" d="M965.264,286.309c27.509,3.749,39.194,2.294,43.918,14.16s4.5,23.289,12.986,27.3c0,0-19.937-1.3-35.091-15,0,0-.152,9.453-1.155,11.169,0,0-10.378-13.27-17.846-15.788s-9.373-5.435-9.373-5.435-.652,13.309-5.8,20.144-5.44,18.817-4.339,22.616c0,0-6.783-4.75-6.756-11.5s-8.908-8.765-10.622-10.649-8.993-15.5-7.828-17.395" transform="translate(-923.23 -286.309)" fill="#2c2826"/>
    </g>
    <g id="Group_1302" data-name="Group 1302" transform="translate(941.565 268.057)">
      <ellipse id="Ellipse_158" data-name="Ellipse 158" cx="3.03" cy="1.691" rx="3.03" ry="1.691" transform="translate(0 6.002) rotate(-82.023)" fill="#2c2826"/>
    </g>
    <g id="Group_1303" data-name="Group 1303" transform="translate(970.46 273.166)">
      <ellipse id="Ellipse_159" data-name="Ellipse 159" cx="3.03" cy="1.691" rx="3.03" ry="1.691" transform="translate(0 6.002) rotate(-82.023)" fill="#2c2826"/>
    </g>
    <g id="Group_1304" data-name="Group 1304" transform="translate(959.184 277.821)">
      <path id="Path_5282" data-name="Path 5282" d="M1073.294,392.658s2.2-.469,2.621,1.238-2.771,2.273-2.771,2.273" transform="translate(-1072.758 -392.208)" fill="#fff" fill-rule="evenodd"/>
      <path id="Path_5283" data-name="Path 5283" d="M1072.528,395.931a.385.385,0,0,1-.067-.764,4.2,4.2,0,0,0,2.358-1.163.766.766,0,0,0,.107-.639c-.327-1.33-2.092-.97-2.167-.953a.385.385,0,0,1-.16-.754c.886-.188,2.673-.114,3.075,1.524a1.53,1.53,0,0,1-.209,1.244c-.709,1.089-2.65,1.462-2.869,1.5A.4.4,0,0,1,1072.528,395.931Z" transform="translate(-1072.143 -391.585)" fill="#2c2826"/>
    </g>
    <g id="Group_1305" data-name="Group 1305" transform="translate(939.528 260.266)">
      <path id="Path_5284" data-name="Path 5284" d="M1028.26,350.427a2.207,2.207,0,0,0,1.246.457,2.469,2.469,0,0,0,1.686-.969c.073-.234-.4-.026-1.272-1.029-.855-.985-4.309-4-8.368-2.438-.7.271-.513.816.178.89A8.551,8.551,0,0,1,1028.26,350.427Z" transform="translate(-1021.111 -346.006)" fill="#2c2826" fill-rule="evenodd"/>
    </g>
    <g id="Group_1306" data-name="Group 1306" transform="translate(969.448 269.961)">
      <path id="Path_5285" data-name="Path 5285" d="M1100.872,373.581a2.206,2.206,0,0,1-1.275-.365,2.47,2.47,0,0,1-.791-1.777c.079-.232.339.215,1.634-.081,1.272-.291,5.841-.691,8.2,2.966.4.631-.067.961-.669.614A8.553,8.553,0,0,0,1100.872,373.581Z" transform="translate(-1098.794 -371.179)" fill="#2c2826" fill-rule="evenodd"/>
    </g>
    <g id="Group_1307" data-name="Group 1307" transform="translate(955.966 294.357)">
      <path id="Path_5286" data-name="Path 5286" d="M1064.789,435.521c3.162.184,5.293.192,5.293.192" transform="translate(-1064.404 -435.135)" fill="#fff" fill-rule="evenodd"/>
      <path id="Path_5287" data-name="Path 5287" d="M1069.467,435.483h0c-.021,0-2.177-.01-5.314-.193a.386.386,0,0,1-.362-.407.377.377,0,0,1,.407-.362c3.115.182,5.25.192,5.272.192a.385.385,0,0,1,0,.77Z" transform="translate(-1063.789 -434.52)" fill="#2c2826"/>
    </g>
    <g id="Group_1308" data-name="Group 1308" transform="translate(898.053 230.178)">
      <path id="Path_5288" data-name="Path 5288" d="M928.05,298.062c7.972-9.91,17.943-18.6,48.155-16.957s30.306,15.186,30.306,15.186,2.7-16.294-15.624-23.264-44.615-6.445-60.527,11.98-15.935,26.553-15.935,26.553l.868,5.75S924.356,302.654,928.05,298.062Z" transform="translate(-914.04 -268.506)" fill="#fff"/>
      <path id="Path_5289" data-name="Path 5289" d="M914.678,317.075a.371.371,0,0,1-.077-.008.386.386,0,0,1-.3-.32l-.867-5.75a.415.415,0,0,1,0-.059c0-.338.206-8.481,16.029-26.8,7.342-8.5,17.576-13.911,29.595-15.642a64.015,64.015,0,0,1,31.36,3.555c18.407,7,15.894,23.521,15.867,23.687a.385.385,0,0,1-.765-.06c0-.032-.085-3.315-3.763-6.756-6.214-5.813-17.666-7.584-26.18-8.047-13.729-.745-24.275.6-32.241,4.114C936,288.215,931.5,293,927.735,297.683c-3.636,4.521-12.639,19.063-12.73,19.209A.385.385,0,0,1,914.678,317.075Zm-.482-6.162.707,4.686c2.027-3.25,9.094-14.5,12.232-18.4h0c7.7-9.568,17.772-18.771,48.476-17.1,12.623.686,21.615,3.483,26.726,8.313a13.48,13.48,0,0,1,3.307,4.646,21.734,21.734,0,0,0-1.065-6.321c-1.452-4.42-5.137-10.432-14.444-13.972-18.677-7.1-44.5-6.187-60.1,11.871C917.615,299.021,914.247,308.092,914.2,310.913Z" transform="translate(-913.425 -267.886)" fill="#2c2826"/>
    </g>
    <g id="Group_1314" data-name="Group 1314" transform="translate(935.653 211.181)">
      <g id="Group_1309" data-name="Group 1309" transform="translate(0 6.133)">
        <path id="Path_5290" data-name="Path 5290" d="M1021.518,235.563c-5.552,1.545-13.8,17.491-6.7,22.757,4.971,3.69,13.693,4.131,17.182,2.506,4.112-1.915,11.322-12.7,10.327-14.841C1039.418,239.743,1024.611,234.7,1021.518,235.563Z" transform="translate(-1011.675 -235.089)" fill="#fff"/>
        <path id="Path_5291" data-name="Path 5291" d="M1026.039,261.493c-3.969,0-8.79-1.026-12.078-3.467-1.753-1.3-3.633-3.984-2.633-9.375,1.15-6.2,5.748-13.03,9.46-14.063,3.247-.9,18.31,4.3,21.26,10.631.815,1.75-2.589,6.875-3.28,7.884-1.99,2.909-4.936,6.4-7.234,7.469A13.85,13.85,0,0,1,1026.039,261.493Zm-5.147-26.533.1.371c-3.411.949-7.824,7.617-8.909,13.461-.512,2.76-.523,6.495,2.334,8.616,4.94,3.666,13.458,4.019,16.79,2.466,1.777-.828,4.495-3.656,6.923-7.206,2.553-3.73,3.551-6.407,3.217-7.124-2.8-6.018-17.477-11.018-20.356-10.213Z" transform="translate(-1011.049 -234.486)" fill="#2c2826"/>
      </g>
      <g id="Group_1310" data-name="Group 1310" transform="translate(5.162 5.03)">
        <path id="Path_5292" data-name="Path 5292" d="M1031.047,232.936c-5.552,1.545-8.519,9.408-1.422,14.675,4.971,3.69,13.694,4.131,17.182,2.506,4.113-1.915,6.323-8.45-.141-13.2C1041.115,232.846,1034.14,232.076,1031.047,232.936Z" transform="translate(-1025.068 -232.236)" fill="#fff"/>
        <path id="Path_5293" data-name="Path 5293" d="M1040.857,250.773c-3.969,0-8.79-1.026-12.078-3.467s-4.809-5.733-4.194-9.048a8.107,8.107,0,0,1,5.742-6.308h0a16.2,16.2,0,0,1,7.07.136,23.228,23.228,0,0,1,8.88,3.91c3,2.2,4.487,5.03,4.2,7.968a7.385,7.385,0,0,1-4.121,5.887A13.849,13.849,0,0,1,1040.857,250.773Zm-10.323-18.08h0a7.331,7.331,0,0,0-5.191,5.706c-.56,3.015.86,6.036,3.9,8.289,4.94,3.666,13.457,4.019,16.79,2.466a6.6,6.6,0,0,0,3.679-5.265c.263-2.657-1.117-5.239-3.885-7.272C1040.311,232.572,1033.44,231.884,1030.533,232.693Z" transform="translate(-1024.451 -231.622)" fill="#2c2826"/>
      </g>
      <g id="Group_1311" data-name="Group 1311" transform="translate(12.611 0.593)">
        <path id="Path_5294" data-name="Path 5294" d="M1051.675,221.138c-2.972.827-9.534,12.376-5.734,15.2a7.987,7.987,0,0,0,7.7,1.268c2.2-1.026,9.707-9.74,9.174-10.885C1061.259,223.376,1053.331,220.677,1051.675,221.138Z" transform="translate(-1044.405 -220.707)" fill="#fff"/>
        <path id="Path_5295" data-name="Path 5295" d="M1050.5,237.881a9.122,9.122,0,0,1-5.4-1.843c-1.167-.866-1.563-2.514-1.145-4.765.8-4.334,4.667-10.46,7.005-11.112h0c1.82-.5,9.94,2.24,11.593,5.788.41.88-1.741,3.694-3.617,5.9-1.98,2.327-4.524,4.929-5.743,5.5A6.457,6.457,0,0,1,1050.5,237.881Zm1.072-17.022a1.542,1.542,0,0,0-.41.045h0c-2.2.612-5.781,6.882-6.455,10.51-.251,1.354-.308,3.148.847,4.006a7.566,7.566,0,0,0,7.309,1.229c.92-.429,3.118-2.541,5.344-5.136,2.729-3.183,3.677-4.918,3.634-5.265C1060.484,223.334,1053.735,220.859,1051.576,220.859Zm-.513-.327h0Z" transform="translate(-1043.792 -220.102)" fill="#2c2826"/>
      </g>
      <g id="Group_1312" data-name="Group 1312" transform="translate(17.196)">
        <path id="Path_5296" data-name="Path 5296" d="M1059.693,219.732c-2.972.827-4.561,5.037-.761,7.857,2.662,1.975,7.331,2.212,9.2,1.342,2.2-1.026,3.385-4.524-.076-7.065C1065.084,219.683,1061.349,219.271,1059.693,219.732Z" transform="translate(-1056.313 -219.178)" fill="#fff"/>
        <path id="Path_5297" data-name="Path 5297" d="M1064.666,229.168a11.578,11.578,0,0,1-6.58-1.886,5.092,5.092,0,0,1-2.314-5.02,4.521,4.521,0,0,1,3.2-3.517h0c1.717-.477,5.551-.113,8.693,2.194a4.926,4.926,0,0,1,2.319,4.428,4.136,4.136,0,0,1-2.308,3.3A7.584,7.584,0,0,1,1064.666,229.168Zm-5.486-9.681h0a3.744,3.744,0,0,0-2.651,2.915,4.355,4.355,0,0,0,2.016,4.261c2.553,1.894,7.1,2.094,8.807,1.3a3.352,3.352,0,0,0,1.867-2.675,4.193,4.193,0,0,0-2.008-3.731C1064.308,219.429,1060.7,219.064,1059.18,219.488Z" transform="translate(-1055.697 -218.562)" fill="#2c2826"/>
      </g>
      <g id="Group_1313" data-name="Group 1313" transform="translate(19.57 1.729)">
        <path id="Path_5298" data-name="Path 5298" d="M1064.806,224.159c-1.931.537-2.962,3.272-.495,5.1a7.2,7.2,0,0,0,5.975.872c1.43-.666,2.2-2.939-.049-4.589A7.3,7.3,0,0,0,1064.806,224.159Z" transform="translate(-1062.476 -223.666)" fill="#fff"/>
        <path id="Path_5299" data-name="Path 5299" d="M1067.821,230.224a7.707,7.707,0,0,1-4.355-1.266,3.438,3.438,0,0,1-1.556-3.394,3.072,3.072,0,0,1,2.177-2.39h0a7.631,7.631,0,0,1,5.762,1.447,3.269,3.269,0,0,1,1.561,3,2.823,2.823,0,0,1-1.576,2.25A4.961,4.961,0,0,1,1067.821,230.224Zm-3.527-6.307h0a2.3,2.3,0,0,0-1.626,1.788,2.617,2.617,0,0,0,1.257,2.635,6.843,6.843,0,0,0,5.583.832,2.04,2.04,0,0,0,1.135-1.628,2.594,2.594,0,0,0-1.25-2.3A6.906,6.906,0,0,0,1064.294,223.917Z" transform="translate(-1061.86 -223.052)" fill="#2c2826"/>
      </g>
    </g>
    <g id="Group_1320" data-name="Group 1320" transform="translate(966.662 217.886)">
      <g id="Group_1315" data-name="Group 1315" transform="translate(0 5.131)">
        <path id="Path_5300" data-name="Path 5300" d="M1100.466,250.37c-4.649,1.294-11.554,14.647-5.612,19.057,4.163,3.09,11.467,3.459,14.388,2.1,3.444-1.6,9.481-10.639,8.648-12.428C1115.455,253.87,1103.056,249.649,1100.466,250.37Z" transform="translate(-1092.17 -249.906)" fill="#fff"/>
        <path id="Path_5301" data-name="Path 5301" d="M1104.169,272.038c-3.337,0-7.391-.863-10.154-2.914-2.1-1.555-2.887-4.365-2.229-7.912.967-5.207,4.839-10.954,7.967-11.825h0c2.8-.776,15.325,3.46,17.876,8.936.68,1.459-1.933,5.47-2.751,6.664-1.672,2.443-4.147,5.374-6.083,6.276A11.657,11.657,0,0,1,1104.169,272.038Zm-3.557-21.979a2.508,2.508,0,0,0-.653.07h0c-2.837.79-6.51,6.348-7.416,11.223-.426,2.294-.437,5.4,1.93,7.153,4.12,3.057,11.219,3.351,14,2.059,1.479-.689,3.745-3.049,5.773-6.013,2.1-3.071,2.954-5.334,2.689-5.9C1114.759,253.986,1104.043,250.059,1100.611,250.059Zm-.755-.3h0Z" transform="translate(-1091.56 -249.295)" fill="#2c2826"/>
      </g>
      <g id="Group_1316" data-name="Group 1316" transform="translate(4.313 4.212)">
        <path id="Path_5302" data-name="Path 5302" d="M1108.445,248.17c-4.649,1.294-7.133,7.878-1.191,12.289,4.163,3.09,11.467,3.459,14.388,2.1,3.444-1.6,5.295-7.076-.119-11.05C1116.876,248.095,1111.036,247.45,1108.445,248.17Z" transform="translate(-1103.376 -247.522)" fill="#fff"/>
        <path id="Path_5303" data-name="Path 5303" d="M1116.563,263.068c-3.337,0-7.391-.862-10.154-2.913s-4.056-4.837-3.536-7.638a6.852,6.852,0,0,1,4.853-5.331h0a13.652,13.652,0,0,1,5.951.113,19.523,19.523,0,0,1,7.46,3.285c2.528,1.856,3.785,4.246,3.539,6.729a6.249,6.249,0,0,1-3.487,4.981A11.654,11.654,0,0,1,1116.563,263.068Zm-8.631-15.14h0a6.074,6.074,0,0,0-4.3,4.729c-.465,2.5.716,5.008,3.238,6.879,4.119,3.057,11.219,3.352,14,2.059a5.464,5.464,0,0,0,3.045-4.358c.218-2.2-.928-4.344-3.228-6.033C1116.082,247.828,1110.353,247.253,1107.932,247.928Z" transform="translate(-1102.759 -246.908)" fill="#2c2826"/>
      </g>
      <g id="Group_1317" data-name="Group 1317" transform="translate(10.551 0.497)">
        <path id="Path_5304" data-name="Path 5304" d="M1125.719,238.29c-2.489.693-7.983,10.364-4.8,12.725a6.688,6.688,0,0,0,6.448,1.062c1.843-.859,8.128-8.157,7.682-9.115C1133.744,240.164,1127.105,237.9,1125.719,238.29Z" transform="translate(-1119.568 -237.868)" fill="#fff"/>
        <path id="Path_5305" data-name="Path 5305" d="M1124.639,252.275a7.7,7.7,0,0,1-4.564-1.556c-1-.74-1.338-2.141-.983-4.051.676-3.647,3.936-8.8,5.911-9.354h0c1.537-.428,8.387,1.887,9.781,4.881.287.616-.735,2.3-3.039,5.007-1.663,1.954-3.8,4.14-4.83,4.62A5.471,5.471,0,0,1,1124.639,252.275Zm.91-14.255a1.307,1.307,0,0,0-.34.037h0c-1.555.433-4.7,5.2-5.36,8.752-.207,1.116-.257,2.593.685,3.292a6.269,6.269,0,0,0,6.056,1.022c1.844-.859,7.469-7.617,7.483-8.63C1132.906,240.063,1127.335,238.02,1125.549,238.02Zm8.523,4.456Zm-8.966-4.791h0Z" transform="translate(-1118.956 -237.263)" fill="#2c2826"/>
      </g>
      <g id="Group_1318" data-name="Group 1318" transform="translate(14.391 0)">
        <path id="Path_5306" data-name="Path 5306" d="M1132.433,237.113c-2.489.693-3.819,4.218-.637,6.579,2.229,1.654,6.139,1.852,7.7,1.123,1.844-.859,2.835-3.788-.064-5.916A9.408,9.408,0,0,0,1132.433,237.113Z" transform="translate(-1129.54 -236.587)" fill="#fff"/>
        <path id="Path_5307" data-name="Path 5307" d="M1136.45,244.989a9.577,9.577,0,0,1-5.5-1.6,4.325,4.325,0,0,1-1.963-4.266,3.847,3.847,0,0,1,2.726-2.994h0a9.72,9.72,0,0,1,7.333,1.848,4.111,4.111,0,0,1,1.967,3.764,3.525,3.525,0,0,1-1.969,2.811A6.536,6.536,0,0,1,1136.45,244.989Zm-4.529-8.12h0a3.072,3.072,0,0,0-2.175,2.393,3.586,3.586,0,0,0,1.664,3.506c2.12,1.574,5.9,1.742,7.311,1.084a2.744,2.744,0,0,0,1.528-2.189,3.451,3.451,0,0,0-1.656-3.068A9.025,9.025,0,0,0,1131.921,236.869Z" transform="translate(-1128.924 -235.972)" fill="#2c2826"/>
      </g>
      <g id="Group_1319" data-name="Group 1319" transform="translate(16.378 1.448)">
        <path id="Path_5308" data-name="Path 5308" d="M1136.715,240.821c-1.617.45-2.481,2.74-.414,4.273a6.027,6.027,0,0,0,5,.73c1.2-.558,1.841-2.461-.041-3.843A6.112,6.112,0,0,0,1136.715,240.821Z" transform="translate(-1134.7 -240.345)" fill="#fff"/>
        <path id="Path_5309" data-name="Path 5309" d="M1139.142,245.861a6.521,6.521,0,0,1-3.686-1.071,2.939,2.939,0,0,1-1.328-2.9,2.636,2.636,0,0,1,1.867-2.05h0a6.46,6.46,0,0,1,4.879,1.222,2.8,2.8,0,0,1,1.332,2.567,2.428,2.428,0,0,1-1.357,1.935A4.212,4.212,0,0,1,1139.142,245.861Zm-2.94-5.282h0a1.859,1.859,0,0,0-1.316,1.448,2.133,2.133,0,0,0,1.029,2.145,5.658,5.658,0,0,0,4.611.69,1.647,1.647,0,0,0,.915-1.313,2.116,2.116,0,0,0-1.022-1.871A5.7,5.7,0,0,0,1136.2,240.579Z" transform="translate(-1134.084 -239.732)" fill="#2c2826"/>
      </g>
    </g>
  </g>
</svg>
