<?xml version="1.0" encoding="utf-8"?>
<!-- Generator: Adobe Illustrator 27.5.0, SVG Export Plug-In . SVG Version: 6.00 Build 0)  -->
<svg version="1.1" id="Слой_1" xmlns="http://www.w3.org/2000/svg" xmlns:xlink="http://www.w3.org/1999/xlink" x="0px" y="0px"
	 viewBox="0 0 616.04 487.24" style="enable-background:new 0 0 616.04 487.24;" xml:space="preserve">
<style type="text/css">
	.st0{fill:#FFFFFF;}
</style>
<g>
	<g>
		<path class="st0" d="M308.02,322.84c30.69,0,55.65-24.97,55.65-55.65c0-30.69-24.97-55.66-55.65-55.66s-55.65,24.97-55.65,55.66
			C252.37,297.88,277.33,322.84,308.02,322.84z"/>
		<path class="st0" d="M582.7,277.87c-2.07,0-4.09,0.21-6.06,0.58c-7.42-18.47-20.91-30.82-36.33-30.82c-0.77,0-1.53,0.03-2.28,0.09
			v-61.71c0-27.95-22.87-50.83-50.82-50.83H360.32v-1.5c0-9.02-7.31-16.33-16.33-16.33h-29.68V65.64c14.47-3.64,25.2-16.7,25.2-32.3
			C339.51,14.93,324.59,0,306.17,0c-18.41,0-33.34,14.93-33.34,33.34c0,15.6,10.73,28.66,25.2,32.3v51.71h-29.68
			c-9.02,0-16.33,7.31-16.33,16.33v1.5H125.14c-27.95,0-50.82,22.87-50.82,50.83v61.67c-14.82,0.73-27.72,12.87-34.91,30.76
			c-1.97-0.36-3.99-0.58-6.06-0.58C14.93,277.87,0,292.8,0,311.21c0,18.42,14.93,33.34,33.34,33.34c2.07,0,4.09-0.21,6.06-0.58
			c7.19,17.89,20.09,30.03,34.91,30.76v61.67c0,27.95,22.87,50.83,50.82,50.83H487.2c27.95,0,50.82-22.87,50.82-50.83V374.7
			c0.76,0.06,1.52,0.09,2.28,0.09c15.42,0,28.91-12.35,36.33-30.82c1.97,0.36,3.99,0.58,6.06,0.58c18.41,0,33.34-14.93,33.34-33.34
			C616.04,292.8,601.11,277.87,582.7,277.87z M308.02,173.78c51.51,0,93.41,41.9,93.41,93.41c0,51.51-41.9,93.41-93.41,93.41
			s-93.41-41.9-93.41-93.41C214.61,215.68,256.52,173.78,308.02,173.78z M455.93,379.35c-2.25,2.64-56.12,64.71-153.72,64.71
			c-99.09,0-141.78-63.93-143.55-66.65c-5.68-8.74-3.2-20.43,5.54-26.12c8.7-5.66,20.34-3.22,26.06,5.44
			c1.52,2.25,34.34,49.56,111.95,49.56c79.56,0,123.18-49.37,125-51.47c6.8-7.86,18.7-8.77,26.6-2.01
			C461.7,359.6,462.67,371.44,455.93,379.35z"/>
	</g>
</g>
</svg>
