<?xml version="1.0" encoding="utf-8"?>
<!-- Generator: Adobe Illustrator 24.0.1, SVG Export Plug-In . SVG Version: 6.00 Build 0)  -->
<svg version="1.1" id="Layer_1" xmlns="http://www.w3.org/2000/svg" xmlns:xlink="http://www.w3.org/1999/xlink" x="0px" y="0px"
	 width="500px" height="500px" viewBox="0 0 500 500" style="enable-background:new 0 0 500 500;" xml:space="preserve">
<style type="text/css">
	.st0{fill:#FFFFFF;}
	.st1{fill:none;stroke:#FFFFFF;stroke-width:18.7457;stroke-miterlimit:10;}
</style>
<g>
	<g>
		<polygon points="-396.1,-227.6 -609.6,142.1 -182.7,142.1 		"/>
	</g>
	<g>
		<path class="st0" d="M-396.1-128.4l130.6,226.3h-261.3L-396.1-128.4 M-396.1-163.2l-160.8,278.5h321.6L-396.1-163.2L-396.1-163.2z
			"/>
	</g>
	<path class="st1" d="M-395.6-137.8V26.9l-148.6,79 M-257.7,100.6l-137.9-73.6"/>
</g>
<g>
	<polygon points="108,377.2 240.7,306.6 240.7,147.2 	"/>
	<polygon points="255.4,332.1 118.2,405.1 392.1,405.1 	"/>
	<polygon points="270.2,306.6 401.7,376.9 270.2,149 	"/>
</g>
<g>
	<path d="M254.8,61.8l212.8,368.5H42.1L254.8,61.8 M254.8,43.9L26.6,439.3h456.6L254.8,43.9L254.8,43.9z"/>
</g>
</svg>
