<svg xmlns="http://www.w3.org/2000/svg" width="121.569" height="123.922" viewBox="0 0 121.569 123.922">
  <g id="Group_1294" data-name="Group 1294" transform="translate(-255.592 -205.358)">
    <g id="Group_1270" data-name="Group 1270" transform="translate(255.592 205.358)">
      <path id="Path_5240" data-name="Path 5240" d="M299.539,306.979c-.186.71-15.062,7.965-20.045,8.177,0,0,5.741-14.874,3.423-11.915-5.637,7.2-21.814,2.366-21.814,2.366s14.065-7.8,10.8-14.665c0,0-11.762,5.006-15.757,4.34s15.284-7.044,10.619-19.635,3.462-39.729,21.254-48.341,10.445-21.948,10.445-21.948,7.539,14.62,6.551,15.5,11.358-5.747,11.669-9.835,2.139,7.761,2.139,7.761,30.7-1.137,39.8,20.265,14.611,25.5,18.142,26.384-17.41.413-20.134-4.7,4.151,24.829,12.193,29.73-18.745-.752-19.634-1.283S299.539,306.979,299.539,306.979Z" transform="translate(-255.592 -205.358)" fill="#2c2826" fill-rule="evenodd"/>
    </g>
    <g id="Group_1271" data-name="Group 1271" transform="translate(292.741 296.527)">
      <path id="Path_5241" data-name="Path 5241" d="M353.087,433.252c.528,3.164-4.041,28.161-4.041,28.161s7.278,4.578,13.2,3.667c4.767-.733,6.4-2.682,6.4-2.682a84.066,84.066,0,0,1,3.243-18.961C374.915,432.911,353.087,433.252,353.087,433.252Z" transform="translate(-348.644 -432.85)" fill="#fff" fill-rule="evenodd"/>
      <path id="Path_5242" data-name="Path 5242" d="M360,465.006c-5.575,0-11.491-3.678-11.765-3.85a.4.4,0,0,1-.182-.413c1.576-8.622,4.448-25.575,4.039-28.023a.4.4,0,0,1,.39-.468,51.515,51.515,0,0,1,7.549.557c5.407.822,9.033,2.394,10.778,4.673a5.881,5.881,0,0,1,.869,5.467,84.5,84.5,0,0,0-3.227,18.861.406.406,0,0,1-.094.248c-.071.084-1.786,2.073-6.647,2.821A11.267,11.267,0,0,1,360,465.006Zm-11.106-4.391c1.275.751,7.569,4.258,12.694,3.471,3.941-.606,5.672-2.071,6.065-2.453a86.355,86.355,0,0,1,3.253-18.905,5.056,5.056,0,0,0-.735-4.756c-3.49-4.56-14.882-4.9-17.246-4.915C353.073,437.42,349.393,457.861,348.892,460.615Z" transform="translate(-348.046 -432.253)" fill="#2c2826"/>
    </g>
    <g id="Group_1272" data-name="Group 1272" transform="translate(281.243 247.193)">
      <path id="Path_5243" data-name="Path 5243" d="M326.782,355.859s.48,10.312,8.343,16.656,15.478,10.044,28.824,9.27,24.8-13.147,29.726-29.569,2.575-22.759,2.575-22.759-20.918-16.207-22.321-16.683-36.96-2.2-37.315-2.289-14.387,14.429-14.387,14.429l-1,11.267s-2.635,14.338,1.753,17.735S326.782,355.859,326.782,355.859Z" transform="translate(-320.037 -310.079)" fill="#fff"/>
      <path id="Path_5244" data-name="Path 5244" d="M359.915,381.686c-11.486,0-18.455-3.659-25.648-9.462-6.741-5.439-8.155-13.838-8.43-16.27-.537-.1-1.544-.648-3.708-2.323-4.53-3.507-2.011-17.531-1.9-18.126l1-11.229a.4.4,0,0,1,.111-.244c.035-.036,3.55-3.673,7.063-7.252,7.27-7.407,7.387-7.374,7.715-7.287.209.025,3.6.206,7.9.434,14.376.765,28.49,1.539,29.444,1.862,1.426.484,20.291,15.083,22.438,16.746a.4.4,0,0,1,.131.178,16.644,16.644,0,0,1,.583,5.364c-.026,3.345-.594,9.121-3.15,17.65-5.209,17.377-17.019,29.1-30.088,29.854Q361.575,381.686,359.915,381.686Zm-33.317-26.2c.14,1.6,1.222,10.5,8.174,16.111,7.737,6.242,15.209,9.953,28.549,9.182,12.728-.739,24.254-12.233,29.364-29.283,2.514-8.387,3.082-14.061,3.116-17.344a17.9,17.9,0,0,0-.5-5.059c-8.38-6.492-21.111-16.2-22.106-16.544-.994-.319-19.361-1.3-29.229-1.821-5.627-.3-7.355-.394-7.867-.437-1.036.792-8.873,8.8-14.088,14.2l-.988,11.125c-.031.178-2.547,14.173,1.6,17.382a15.348,15.348,0,0,0,3.181,2.115.4.4,0,0,1,.747-.005A.744.744,0,0,1,326.6,355.487Zm9.311-45.216a.4.4,0,0,0,.08.012A.646.646,0,0,1,335.909,310.27Z" transform="translate(-319.431 -309.475)" fill="#2c2826"/>
    </g>
    <g id="Group_1273" data-name="Group 1273" transform="translate(270.538 237.838)">
      <path id="Path_5245" data-name="Path 5245" d="M337.169,286.191c28.589,4.649,40.813,3.445,45.422,15.948s4.071,24.41,12.81,28.821a63.637,63.637,0,0,1-34.761-16.393s3.127,13.346,2.034,15.109c0,0-15.439-17.808-23.16-20.635s-9.629-5.92-9.629-5.92-1.038,13.862-6.592,20.852-6.179,19.479-5.133,23.47c0,0-6.946-5.136-6.737-12.175s-9.056-9.38-10.792-11.392-8.962-16.409-7.7-18.352" transform="translate(-292.788 -286.191)" fill="#2c2826"/>
    </g>
    <g id="Group_1274" data-name="Group 1274" transform="translate(311.513 270.706)">
      <ellipse id="Ellipse_156" data-name="Ellipse 156" cx="3.161" cy="1.765" rx="3.161" ry="1.765" transform="translate(0 6.237) rotate(-80.547)" fill="#2c2826"/>
    </g>
    <g id="Group_1275" data-name="Group 1275" transform="translate(343.014 280.869)">
      <ellipse id="Ellipse_157" data-name="Ellipse 157" cx="3.161" cy="1.765" rx="3.161" ry="1.765" transform="translate(0 6.237) rotate(-80.547)"/>
    </g>
    <g id="Group_1276" data-name="Group 1276" transform="translate(329.701 280.567)">
      <path id="Path_5246" data-name="Path 5246" d="M441.281,393.592s2.308-.43,2.7,1.362-2.951,2.3-2.951,2.3" transform="translate(-440.628 -393.139)" fill="#fff" fill-rule="evenodd"/>
      <path id="Path_5247" data-name="Path 5247" d="M440.431,397.045a.4.4,0,0,1-.06-.8,4.378,4.378,0,0,0,2.49-1.15.8.8,0,0,0,.129-.663c-.3-1.386-2.156-1.067-2.234-1.052a.4.4,0,0,1-.146-.79c.929-.172,2.79-.047,3.165,1.671a1.6,1.6,0,0,1-.252,1.291c-.768,1.117-2.8,1.453-3.032,1.488A.391.391,0,0,1,440.431,397.045Z" transform="translate(-440.029 -392.533)" fill="#2c2826"/>
    </g>
    <g id="Group_1277" data-name="Group 1277" transform="translate(308.53 264.295)">
      <path id="Path_5248" data-name="Path 5248" d="M395.659,354.648a2.3,2.3,0,0,0,1.352-.3,2.575,2.575,0,0,0,.937-1.8c-.068-.246-.367.2-1.7-.189-1.306-.385-6.038-1.095-8.725,2.562-.462.631.008,1.005.657.682A8.921,8.921,0,0,1,395.659,354.648Z" transform="translate(-387.342 -352.038)" fill="#2c2826" fill-rule="evenodd"/>
    </g>
    <g id="Group_1278" data-name="Group 1278" transform="translate(342.19 276.403)">
      <path id="Path_5249" data-name="Path 5249" d="M473.276,384.674a2.3,2.3,0,0,1-1.33-.385,2.577,2.577,0,0,1-.821-1.855c.083-.242.354.225,1.7-.081,1.328-.3,6.1-.708,8.544,3.113.421.659-.072,1-.7.638A8.92,8.92,0,0,0,473.276,384.674Z" transform="translate(-471.112 -382.171)" fill="#2c2826" fill-rule="evenodd"/>
    </g>
    <g id="Group_1279" data-name="Group 1279" transform="translate(325.955 306.928)">
      <path id="Path_5250" data-name="Path 5250" d="M431.707,460.1a5.31,5.31,0,0,1,6.675.43" transform="translate(-431.305 -458.729)" fill="#fff" fill-rule="evenodd"/>
      <path id="Path_5251" data-name="Path 5251" d="M437.783,460.347a.4.4,0,0,1-.286-.119,4.88,4.88,0,0,0-6.174-.373.4.4,0,1,1-.43-.679,5.754,5.754,0,0,1,7.176.487.4.4,0,0,1-.286.684Z" transform="translate(-430.706 -458.14)" fill="#2c2826"/>
    </g>
    <g id="Group_1280" data-name="Group 1280" transform="translate(266.177 230.643)">
      <path id="Path_5252" data-name="Path 5252" d="M297.507,298.65c8.58-10.122,19.212-18.916,50.676-16.392s31.2,16.651,31.2,16.651,3.255-16.921-15.669-24.682-46.357-7.92-63.446,10.868-17.332,27.265-17.332,27.265l.751,6.02S293.532,303.34,297.507,298.65Z" transform="translate(-282.534 -268.885)" fill="#fff"/>
      <path id="Path_5253" data-name="Path 5253" d="M283.088,318.183a.41.41,0,0,1-.091-.01.4.4,0,0,1-.308-.341l-.751-6.021a.442.442,0,0,1,0-.061c.01-.352.443-8.84,17.437-27.524,7.886-8.67,18.7-14.036,31.284-15.519a66.825,66.825,0,0,1,32.611,4.549c19.008,7.8,15.944,24.957,15.911,25.129a.4.4,0,0,1-.8-.083c0-.033,0-3.46-3.743-7.147-6.324-6.229-18.22-8.385-27.086-9.1-14.3-1.147-25.333-.027-33.734,3.425-7.726,3.174-12.546,8.041-16.6,12.827-3.914,4.617-13.693,19.541-13.791,19.692A.4.4,0,0,1,283.088,318.183Zm-.348-6.439.612,4.906c2.2-3.335,9.873-14.875,13.251-18.859l.307.26-.307-.26c8.284-9.772,19.043-19.1,51.015-16.533,13.146,1.055,22.449,4.214,27.65,9.388a14.072,14.072,0,0,1,3.324,4.934,22.665,22.665,0,0,0-.941-6.621c-1.4-4.649-5.077-11.018-14.689-14.96-19.287-7.91-46.247-7.648-63,10.767C286.626,299.434,282.87,308.8,282.74,311.743Z" transform="translate(-281.936 -268.285)" fill="#2c2826"/>
    </g>
    <g id="Group_1286" data-name="Group 1286" transform="translate(306.431 210.994)">
      <g id="Group_1281" data-name="Group 1281" transform="translate(0 6.091)">
        <path id="Path_5254" data-name="Path 5254" d="M393.442,235.607c-5.831,1.462-14.86,17.871-7.6,23.554,5.086,3.982,14.171,4.676,17.852,3.075,4.34-1.887,12.15-12.945,11.169-15.2C412,240.448,396.691,234.793,393.442,235.607Z" transform="translate(-382.729 -235.133)" fill="#fff"/>
        <path id="Path_5255" data-name="Path 5255" d="M398.09,262.836c-4.247,0-9.578-1.185-13.107-3.947-1.794-1.4-3.682-4.252-2.494-9.847,1.366-6.431,6.344-13.435,10.244-14.413h0c3.413-.859,18.98,4.974,21.887,11.658.8,1.848-2.884,7.1-3.632,8.134-2.155,2.98-5.32,6.541-7.746,7.6A13.664,13.664,0,0,1,398.09,262.836Zm-5.161-27.428h0c-3.584.9-8.365,7.735-9.653,13.8-.608,2.865-.72,6.759,2.2,9.048,5.054,3.955,13.928,4.551,17.445,3.023,1.876-.815,4.786-3.692,7.415-7.329,2.762-3.822,3.875-6.587,3.546-7.343C411.122,240.256,395.95,234.655,392.929,235.408Z" transform="translate(-382.118 -234.544)" fill="#2c2826"/>
      </g>
      <g id="Group_1282" data-name="Group 1282" transform="translate(5.654 5.024)">
        <path id="Path_5256" data-name="Path 5256" d="M403.226,233.148c-5.832,1.462-9.137,9.584-1.877,15.267,5.086,3.982,14.171,4.676,17.852,3.075,4.34-1.887,6.821-8.643.207-13.766C413.728,233.324,406.475,232.333,403.226,233.148Z" transform="translate(-396.79 -232.487)" fill="#fff"/>
        <path id="Path_5257" data-name="Path 5257" d="M413.608,252.081c-4.247,0-9.578-1.185-13.107-3.948-3.356-2.627-4.862-6.108-4.131-9.549a8.457,8.457,0,0,1,6.158-6.424h0a16.9,16.9,0,0,1,7.37.332,24.23,24.23,0,0,1,9.156,4.316c3.067,2.375,4.544,5.366,4.162,8.423a7.7,7.7,0,0,1-4.455,6.03A13.665,13.665,0,0,1,413.608,252.081ZM402.724,232.94h0a7.649,7.649,0,0,0-5.567,5.812c-.665,3.129.735,6.318,3.84,8.749,5.054,3.956,13.928,4.552,17.445,3.023a6.886,6.886,0,0,0,3.978-5.392c.346-2.764-1.024-5.494-3.857-7.688C412.924,233.077,405.778,232.175,402.724,232.94Z" transform="translate(-396.189 -231.889)" fill="#2c2826"/>
      </g>
      <g id="Group_1283" data-name="Group 1283" transform="translate(13.416 0.572)">
        <path id="Path_5258" data-name="Path 5258" d="M424.019,221.842c-3.122.783-10.275,12.651-6.388,15.694,2.723,2.132,6.026,2.387,8,1.53,2.324-1.01,10.385-9.9,9.86-11.105C433.953,224.433,425.758,221.406,424.019,221.842Z" transform="translate(-416.102 -221.402)" fill="#fff"/>
        <path id="Path_5259" data-name="Path 5259" d="M422.589,239.33a9.486,9.486,0,0,1-5.8-2.07c-1.194-.934-1.562-2.664-1.066-5,.956-4.5,5.149-10.785,7.6-11.4,1.911-.484,10.305,2.6,11.934,6.347.728,1.675-7.933,10.706-10.068,11.634A6.615,6.615,0,0,1,422.589,239.33Zm1.29-17.727a1.494,1.494,0,0,0-.359.036h0c-2.312.579-6.214,7.022-7.014,10.787-.3,1.406-.407,3.275.775,4.2a7.892,7.892,0,0,0,7.589,1.478c.972-.423,3.32-2.567,5.711-5.213,2.932-3.246,3.967-5.031,3.932-5.393C433.158,224.392,426.053,221.6,423.879,221.6Zm-.456-.354h0Z" transform="translate(-415.506 -220.81)"/>
      </g>
      <g id="Group_1284" data-name="Group 1284" transform="translate(18.437 0)">
        <path id="Path_5260" data-name="Path 5260" d="M432.236,220.525c-3.122.783-4.892,5.131-1,8.173,2.723,2.132,7.587,2.5,9.557,1.647,2.324-1.011,3.652-4.628.111-7.37C437.858,220.619,433.975,220.089,432.236,220.525Z" transform="translate(-428.603 -219.984)" fill="#fff"/>
        <path id="Path_5261" data-name="Path 5261" d="M437.525,230.565a12.218,12.218,0,0,1-7.141-2.148,5.313,5.313,0,0,1-2.279-5.3,4.715,4.715,0,0,1,3.434-3.581h0c1.8-.452,5.791.031,9.007,2.521a5.139,5.139,0,0,1,2.3,4.681,4.314,4.314,0,0,1-2.5,3.376A7.48,7.48,0,0,1,437.525,230.565Zm-5.791-10.249h0a3.908,3.908,0,0,0-2.843,2.969,4.543,4.543,0,0,0,1.988,4.5c2.612,2.045,7.351,2.377,9.15,1.594a3.5,3.5,0,0,0,2.019-2.739,4.373,4.373,0,0,0-1.994-3.945C437.084,220.394,433.334,219.917,431.733,220.316Z" transform="translate(-428.003 -219.386)" fill="#2c2826"/>
      </g>
      <g id="Group_1285" data-name="Group 1285" transform="translate(20.905 1.826)">
        <path id="Path_5262" data-name="Path 5262" d="M437.246,225.018c-2.028.509-3.177,3.333-.653,5.309A7.508,7.508,0,0,0,442.8,231.4c1.509-.656,2.372-3.006.072-4.787A7.615,7.615,0,0,0,437.246,225.018Z" transform="translate(-434.745 -224.527)" fill="#fff"/>
        <path id="Path_5263" data-name="Path 5263" d="M440.46,231.486a8.111,8.111,0,0,1-4.714-1.439,3.587,3.587,0,0,1-1.532-3.581,3.205,3.205,0,0,1,2.334-2.433h0a7.961,7.961,0,0,1,5.971,1.663,3.414,3.414,0,0,1,1.547,3.169,2.946,2.946,0,0,1-1.7,2.3A4.939,4.939,0,0,1,440.46,231.486Zm-3.717-6.675A2.4,2.4,0,0,0,435,226.633a2.733,2.733,0,0,0,1.241,2.782,7.138,7.138,0,0,0,5.8,1.017,2.129,2.129,0,0,0,1.228-1.667,2.71,2.71,0,0,0-1.242-2.433,7.2,7.2,0,0,0-5.284-1.519Zm-.1-.39h0Z" transform="translate(-434.145 -223.931)" fill="#2c2826"/>
      </g>
    </g>
    <g id="Group_1292" data-name="Group 1292" transform="translate(338.692 218.726)">
      <g id="Group_1287" data-name="Group 1287" transform="translate(0 5.098)">
        <path id="Path_5264" data-name="Path 5264" d="M472.025,252.372c-4.883,1.224-12.443,14.965-6.364,19.724,4.259,3.334,11.866,3.916,14.949,2.575,3.635-1.58,10.174-10.84,9.353-12.729C487.564,256.425,474.745,251.69,472.025,252.372Z" transform="translate(-463 -251.908)" fill="#fff"/>
        <path id="Path_5265" data-name="Path 5265" d="M475.84,275.137c-3.572,0-8.053-1-11.019-3.318-2.144-1.678-2.894-4.63-2.112-8.312,1.148-5.4,5.34-11.293,8.626-12.118h0c2.944-.736,15.89,4.019,18.4,9.8.964,2.217-5.827,11.634-9.561,13.258A11.51,11.51,0,0,1,475.84,275.137Zm-3.74-23.026a2.422,2.422,0,0,0-.57.057h0c-2.981.748-6.961,6.446-8.035,11.506-.506,2.381-.6,5.616,1.821,7.512,4.215,3.3,11.611,3.8,14.542,2.523,3.753-1.632,9.776-10.749,9.144-12.2C486.839,256.535,475.554,252.111,472.1,252.111Zm-.668-.332h0Z" transform="translate(-462.407 -251.314)" fill="#2c2826"/>
      </g>
      <g id="Group_1288" data-name="Group 1288" transform="translate(4.724 4.206)">
        <path id="Path_5266" data-name="Path 5266" d="M480.218,250.313c-4.883,1.224-7.651,8.025-1.572,12.784,4.259,3.334,11.866,3.916,14.949,2.575,3.634-1.581,5.712-7.238.173-11.528C489.013,250.461,482.939,249.631,480.218,250.313Z" transform="translate(-474.763 -249.694)" fill="#fff"/>
        <path id="Path_5267" data-name="Path 5267" d="M488.817,266.133c-3.572,0-8.053-1-11.019-3.318-2.831-2.216-4.1-5.154-3.482-8.061a7.146,7.146,0,0,1,5.2-5.429h0a14.215,14.215,0,0,1,6.2.277,20.367,20.367,0,0,1,7.691,3.626c2.587,2,3.834,4.53,3.511,7.114a6.517,6.517,0,0,1-3.769,5.1A11.5,11.5,0,0,1,488.817,266.133Zm-9.1-16.029h0a6.339,6.339,0,0,0-4.614,4.817c-.551,2.6.612,5.242,3.192,7.262,4.215,3.3,11.612,3.8,14.542,2.523a5.7,5.7,0,0,0,3.292-4.463c.286-2.29-.851-4.555-3.2-6.378C488.219,250.221,482.26,249.468,479.716,250.1Z" transform="translate(-474.163 -249.096)" fill="#2c2826"/>
      </g>
      <g id="Group_1289" data-name="Group 1289" transform="translate(11.223 0.481)">
        <path id="Path_5268" data-name="Path 5268" d="M497.63,240.846c-2.614.655-8.6,10.594-5.349,13.142a6.977,6.977,0,0,0,6.7,1.281c1.946-.846,8.7-8.288,8.256-9.3C505.949,243.015,499.086,240.48,497.63,240.846Z" transform="translate(-490.935 -240.414)" fill="#fff"/>
        <path id="Path_5269" data-name="Path 5269" d="M496.335,255.461a8.006,8.006,0,0,1-4.9-1.747c-1.021-.8-1.338-2.269-.917-4.252.8-3.785,4.342-9.076,6.416-9.6h0c1.611-.405,8.7,2.195,10.069,5.353.283.65-.828,2.38-3.3,5.14-1.787,1.993-4.076,4.216-5.162,4.688A5.6,5.6,0,0,1,496.335,255.461Zm.8-14.816c-1.633.41-5.043,5.3-5.825,8.984-.246,1.158-.338,2.7.626,3.452a6.544,6.544,0,0,0,6.288,1.229c1.946-.846,7.993-7.743,8.035-8.8-1.24-2.761-7.814-5.193-9.124-4.865Zm9.124,4.847Z" transform="translate(-490.339 -239.824)" fill="#2c2826"/>
      </g>
      <g id="Group_1290" data-name="Group 1290" transform="translate(15.428 0)">
        <path id="Path_5270" data-name="Path 5270" d="M504.51,239.743c-2.615.655-4.1,4.3-.842,6.844,2.28,1.785,6.353,2.1,8,1.379,1.946-.846,3.058-3.875.093-6.172A9.817,9.817,0,0,0,504.51,239.743Z" transform="translate(-501.403 -239.225)" fill="#fff"/>
        <path id="Path_5271" data-name="Path 5271" d="M508.791,248.128a10.1,10.1,0,0,1-5.97-1.823,4.511,4.511,0,0,1-1.932-4.5,4.014,4.014,0,0,1,2.923-3.049h0a10.137,10.137,0,0,1,7.6,2.123,4.291,4.291,0,0,1,1.95,3.98,3.68,3.68,0,0,1-2.129,2.879A6.478,6.478,0,0,1,508.791,248.128Zm-3.763-8.7a4.3,4.3,0,0,0-1.021.106h0a3.2,3.2,0,0,0-2.332,2.436,3.741,3.741,0,0,0,1.641,3.7c2.169,1.7,6.1,1.976,7.6,1.327a2.862,2.862,0,0,0,1.652-2.242,3.6,3.6,0,0,0-1.645-3.244A10.159,10.159,0,0,0,505.029,239.429Zm-1.118-.284h0Z" transform="translate(-500.803 -238.627)" fill="#2c2826"/>
      </g>
      <g id="Group_1291" data-name="Group 1291" transform="translate(17.494 1.53)">
        <path id="Path_5272" data-name="Path 5272" d="M508.706,243.505c-1.7.426-2.66,2.791-.546,4.446a6.289,6.289,0,0,0,5.2.9c1.264-.55,1.986-2.517.06-4.008A6.374,6.374,0,0,0,508.706,243.505Z" transform="translate(-506.546 -243.03)" fill="#fff"/>
        <path id="Path_5273" data-name="Path 5273" d="M511.3,248.889a6.864,6.864,0,0,1-3.991-1.217,3.066,3.066,0,0,1-1.306-3.064,2.749,2.749,0,0,1,2-2.088h0a6.747,6.747,0,0,1,5.056,1.4,2.92,2.92,0,0,1,1.32,2.713,2.533,2.533,0,0,1-1.466,1.981A4.2,4.2,0,0,1,511.3,248.889Zm-3.1-5.59h0a1.941,1.941,0,0,0-1.412,1.475,2.226,2.226,0,0,0,1.015,2.265,5.9,5.9,0,0,0,4.791.843,1.717,1.717,0,0,0,.989-1.344,2.2,2.2,0,0,0-1.015-1.978A5.957,5.957,0,0,0,508.2,243.3Z" transform="translate(-505.946 -242.434)" fill="#2c2826"/>
      </g>
    </g>
    <g id="Group_1293" data-name="Group 1293" transform="translate(327.414 252.328)">
      <path id="Path_5274" data-name="Path 5274" d="M463.923,397.9c-.192.136,11.461.136,11.009-.23-.107-.671-17.114-39.732-18.433-43.03-.8-2.009-.292-6.062.357-6.761,1.147-1.236,2.273-2.5,3.313-3.823a4.4,4.4,0,0,0,.788-1.864,16.454,16.454,0,0,1,3.241-6.4,1.042,1.042,0,0,0-.209-.931,2.785,2.785,0,0,0-1.632-.19,5.679,5.679,0,0,0-3.523,3.6,3.928,3.928,0,0,1-.853,1.478c-.928.826-2.605-.064-2.991-1.455a12.523,12.523,0,0,1,.147-5.643c.4-2.3.608-4.634.855-6.958a1.224,1.224,0,0,0-1.087-1.345c-.716-.046-1.008.4-1.151,1.044-.605,2.739-1.235,5.472-1.851,8.208-.2.884-.913.9-1.722,1.031-.04-.7-.045-1.35-.122-1.995-.246-2.06-.523-4.115-.777-6.174-.078-.629-.132-1.262-.176-1.894a1.269,1.269,0,0,0-1.631-1.27.871.871,0,0,0-.77.992c.047,2.2.022,4.407.107,6.608.039.99.291,1.97.407,2.959a2.353,2.353,0,0,1-.157.731c-.177-.167-.417-.3-.522-.505q-2.052-3.953-4.067-7.925c-.37-.728-.985-.651-1.571-.444-.613.217-.7.747-.485,1.3.984,2.507,1.988,5.006,2.974,7.512a11.662,11.662,0,0,1,.519,1.569c.052.222,0,.608-.143.7a.941.941,0,0,1-.813.073,17.723,17.723,0,0,1-5.195-3.765,2.643,2.643,0,0,0-1.2-.836,1.384,1.384,0,0,0-1.12.359,1.026,1.026,0,0,0,.078.992c1.264,1.377,2.53,2.762,3.91,4.018a14.1,14.1,0,0,1,4.392,6.435,13.931,13.931,0,0,0,1.258,2.869c.743,1.316,2.184,5.283,2.987,7.292C448.562,355.486,460.517,390.8,463.923,397.9Z" transform="translate(-434.937 -322.85)" fill="#fff"/>
      <path id="Path_5275" data-name="Path 5275" d="M466.878,397.784c-1.183,0-2.251-.011-2.931-.033-.7-.022-.915-.029-1.008-.327-2.721-5.7-10.762-28.959-14.2-38.9-.9-2.6-1.549-4.478-1.651-4.734-.213-.534-.472-1.205-.75-1.928-.749-1.949-1.682-4.374-2.214-5.316a14.159,14.159,0,0,1-1.294-2.953,13.54,13.54,0,0,0-4.277-6.252c-1.357-1.235-2.617-2.607-3.836-3.935l-.1-.109a1.352,1.352,0,0,1-.064-1.55,1.771,1.771,0,0,1,1.508-.459,3.1,3.1,0,0,1,1.4.961,17.135,17.135,0,0,0,5.083,3.675.615.615,0,0,0,.356-.034.7.7,0,0,0,.016-.3,11.211,11.211,0,0,0-.5-1.514q-.7-1.782-1.41-3.56-.785-1.975-1.564-3.952a1.493,1.493,0,0,1-.027-1.18,1.237,1.237,0,0,1,.753-.65,1.482,1.482,0,0,1,2.062.642c1.541,3.028,2.8,5.489,3.963,7.724-.042-.309-.1-.622-.148-.925a14.179,14.179,0,0,1-.235-1.86c-.051-1.331-.063-2.683-.074-3.991-.007-.875-.014-1.75-.033-2.624a1.272,1.272,0,0,1,1.086-1.393,1.741,1.741,0,0,1,1.441.263,1.824,1.824,0,0,1,.677,1.371c.049.719.1,1.314.173,1.872q.162,1.31.331,2.617c.152,1.186.3,2.371.446,3.559.054.454.073.9.093,1.372,0,.068.006.136.009.2.625-.1.85-.21.95-.654q.333-1.476.668-2.951c.4-1.751.8-3.5,1.182-5.255.211-.955.739-1.414,1.569-1.358a1.559,1.559,0,0,1,1.08.562,1.643,1.643,0,0,1,.381,1.226l-.125,1.2c-.2,1.9-.4,3.867-.734,5.784l-.026.149a11.819,11.819,0,0,0-.129,5.317,2.136,2.136,0,0,0,1.373,1.422.987.987,0,0,0,.964-.159,3.648,3.648,0,0,0,.745-1.32,6.035,6.035,0,0,1,3.776-3.843,2.982,2.982,0,0,1,1.889.195c.226.08.387.329.477.741.133.606-.058.794-.121.856a8.972,8.972,0,0,0-1.485,2.161c-.088.159-.176.318-.267.477a11.231,11.231,0,0,0-1.374,3.55,4.766,4.766,0,0,1-.867,2.039c-1.149,1.465-2.386,2.826-3.335,3.849-.479.516-1.069,4.361-.278,6.339.567,1.417,4.1,9.593,7.836,18.25C471.527,389.317,474.4,396,474.7,396.911a.434.434,0,0,1,.018.323c-.115.31-.168.451-4.727.525C468.986,397.775,467.89,397.784,466.878,397.784Zm-3.281-.848c1.356.1,8.475.055,10.217-.129-.876-2.195-6.147-14.4-10.443-24.349-3.741-8.661-7.274-16.844-7.845-18.27-.62-1.551-.605-6.062.436-7.184.939-1.011,2.161-2.357,3.292-3.8a4,4,0,0,0,.71-1.69,12.014,12.014,0,0,1,1.466-3.8q.133-.234.262-.469a10.042,10.042,0,0,1,1.552-2.271,1.331,1.331,0,0,0-.084-.373,2.242,2.242,0,0,0-1.279-.154,5.277,5.277,0,0,0-3.273,3.37,4.225,4.225,0,0,1-.958,1.628,1.781,1.781,0,0,1-1.725.329A2.939,2.939,0,0,1,454,337.8a12.6,12.6,0,0,1,.112-5.67l.026-.149c.329-1.89.531-3.841.726-5.729l.125-1.2a.827.827,0,0,0-.2-.624.756.756,0,0,0-.518-.278c-.369-.024-.59.086-.732.729q-.582,2.631-1.184,5.26-.334,1.475-.668,2.95c-.241,1.069-1.085,1.2-1.829,1.305l-.22.034a.4.4,0,0,1-.465-.374c-.013-.223-.022-.443-.032-.659-.019-.456-.038-.887-.088-1.311-.141-1.185-.293-2.368-.445-3.551-.112-.874-.224-1.747-.331-2.621-.071-.573-.128-1.182-.178-1.916a1.027,1.027,0,0,0-.358-.784.946.946,0,0,0-.788-.121c-.356.078-.462.216-.454.591.019.878.026,1.756.033,2.635.011,1.3.022,2.648.073,3.966a13.418,13.418,0,0,0,.224,1.756c.065.382.133.776.18,1.172a1.552,1.552,0,0,1-.105.668c-.021.067-.043.134-.059.2a.4.4,0,0,1-.667.2c-.049-.046-.1-.088-.156-.131a1.539,1.539,0,0,1-.448-.483c-1.188-2.289-2.48-4.808-4.068-7.928-.176-.346-.4-.488-1.078-.248a.46.46,0,0,0-.29.225.743.743,0,0,0,.044.552q.776,1.977,1.563,3.949.708,1.78,1.412,3.563a11.946,11.946,0,0,1,.536,1.623,1.151,1.151,0,0,1-.313,1.133,1.337,1.337,0,0,1-1.227.089,18.31,18.31,0,0,1-5.306-3.856,2.234,2.234,0,0,0-1-.71,1.03,1.03,0,0,0-.7.228.88.88,0,0,0,.065.468l.1.1c1.206,1.314,2.453,2.673,3.784,3.884a14.286,14.286,0,0,1,4.507,6.618,13.37,13.37,0,0,0,1.223,2.785,56.926,56.926,0,0,1,2.265,5.422c.277.72.534,1.387.746,1.918.109.273.694,1.965,1.664,4.769C452.905,368.109,460.833,391.039,463.6,396.936Zm-.279-62.035h0Zm-28.161-2.639Z" transform="translate(-434.338 -322.253)" fill="#2c2826"/>
    </g>
  </g>
</svg>
