<svg xmlns="http://www.w3.org/2000/svg" xmlns:xlink="http://www.w3.org/1999/xlink" width="144.394" height="124.359" viewBox="0 0 144.394 124.359">
  <defs>
    <clipPath id="clip-path">
      <path id="Intersection_1" data-name="Intersection 1" d="M12.1,13.686C6.04,13.5-.024,6.08,0,2.935.017.875,3.6-.076,9.744.583A28.1,28.1,0,0,0,18.063.4c2.311-.411,3.163-.822,4.112.521,2.047,2.9-2.781,12.77-9.845,12.771C12.252,13.69,12.174,13.688,12.1,13.686ZM.884,1.941a1.306,1.306,0,0,0-.487,1C.376,5.658,6.052,13.1,12.108,13.289c4,.128,7.189-3.078,8.823-6.118,1.317-2.449,1.7-4.926.921-6.023C21.181.2,20.679.3,19.018.622A27.974,27.974,0,0,1,9.7.977a33.218,33.218,0,0,0-3.51-.2C3.613.773,1.746,1.173.884,1.941Z" transform="translate(0 0)" fill="none"/>
    </clipPath>
  </defs>
  <g id="Group_1354" data-name="Group 1354" transform="translate(-2098.948 -203.859)">
    <g id="Group_1382" data-name="Group 1382" transform="translate(2098.948 203.859)">
      <g id="Group_1354-2" data-name="Group 1354" transform="translate(42.214 91.228)">
        <path id="Path_5348" data-name="Path 5348" d="M2210.315,434.871c.513,3.081-3.934,27.417-3.934,27.417s7.085,4.457,12.852,3.57c4.641-.714,6.231-2.611,6.231-2.611a81.849,81.849,0,0,1,3.157-18.461C2231.567,434.539,2210.315,434.871,2210.315,434.871Z" transform="translate(-2205.984 -434.472)" fill="#fff" fill-rule="evenodd"/>
        <path id="Path_5349" data-name="Path 5349" d="M2217.023,465.768c-5.428,0-11.19-3.581-11.457-3.749a.4.4,0,0,1-.179-.407c1.534-8.394,4.33-24.9,3.933-27.281a.4.4,0,0,1,.385-.462c.56-.011,13.829-.155,17.847,5.095a5.731,5.731,0,0,1,.847,5.327,82.247,82.247,0,0,0-3.142,18.362.4.4,0,0,1-.092.245c-.069.082-1.741,2.02-6.474,2.748A10.984,10.984,0,0,1,2217.023,465.768Zm-10.807-4.283c1.249.736,7.368,4.14,12.353,3.376,3.83-.59,5.515-2.013,5.9-2.385a84.086,84.086,0,0,1,3.167-18.4,4.916,4.916,0,0,0-.715-4.625c-3.393-4.434-14.467-4.764-16.78-4.783C2210.282,438.922,2206.706,458.792,2206.216,461.485Z" transform="translate(-2205.38 -433.867)" fill="#2c2826"/>
      </g>
      <g id="Group_1355" data-name="Group 1355" transform="translate(0 0.385)">
        <path id="Path_5350" data-name="Path 5350" d="M2144.409,304.629c-.052.733-13.359,10.6-18.223,11.728,0,0,2.917-15.691,1.18-12.353-4.226,8.117-21.031,6.333-21.031,6.333s12.409-10.259,7.93-16.414c0,0-10.655,7.086-14.708,7.164s13.748-9.738,6.844-21.272-3.888-39.731,12.039-51.472,6.249-23.515,6.249-23.515,10.1,13,9.292,14.048,10.121-7.74,9.677-11.82,3.53,7.244,3.53,7.244,30-6.757,42.888,12.633,19.06,22.407,22.7,22.632-10.234,4.675-13.852.148-4.862,17.2,3.57,21.418c1.586.793-16.479-1.624-17.452-1.983S2144.409,304.629,2144.409,304.629Z" transform="translate(-2098.948 -204.829)" fill="#2c2826" fill-rule="evenodd"/>
      </g>
      <g id="Group_1356" data-name="Group 1356" transform="translate(20.965 37.07)">
        <path id="Path_5351" data-name="Path 5351" d="M2162.968,349.372s2.365,10.059,11.267,14.858,17.076,7.043,30.066,3.83,21.994-17.492,23.822-34.555-1.645-22.869-1.645-22.869-23.56-12.107-25.028-12.318-36.772,4.625-37.138,4.6-11.508,16.841-11.508,16.841l1.084,11.271s.039,14.593,4.981,17.13S2162.968,349.372,2162.968,349.372Z" transform="translate(-2152.408 -297.918)" fill="#fff"/>
        <path id="Path_5352" data-name="Path 5352" d="M2192.422,369.371c-7.193,0-12.915-2.121-18.978-5.389-7.634-4.115-10.567-12.125-11.281-14.462h0c-.545,0-1.634-.353-4.073-1.605-5.1-2.618-5.2-16.877-5.2-17.482l-1.082-11.234a.39.39,0,0,1,.064-.256c.028-.042,2.818-4.267,5.618-8.433,5.788-8.614,5.93-8.6,6.248-8.585.21-.013,3.581-.459,7.85-1.023,14.289-1.887,28.321-3.707,29.318-3.574,1.49.214,22.735,11.116,25.153,12.358a.4.4,0,0,1,.159.149,16.656,16.656,0,0,1,1.559,5.17c.588,3.3,1.09,9.084.14,17.945-1.934,18.055-11.4,31.753-24.121,34.9A47.269,47.269,0,0,1,2192.422,369.371Zm-29.607-20.445c.433,1.551,3.132,10.112,11.006,14.357,8.76,4.722,16.8,7,29.783,3.793,12.392-3.064,21.625-16.493,23.523-34.212,1.666-15.545-1.128-21.718-1.542-22.531-9.441-4.851-23.756-12.068-24.793-12.222-1.037-.134-19.293,2.279-29.1,3.575-5.6.739-7.313.963-7.821,1.015-.869.962-7.116,10.288-11.26,16.56l1.071,11.131c0,.18.1,14.418,4.768,16.816a15.3,15.3,0,0,0,3.525,1.5.4.4,0,0,1,.725-.146A.733.733,0,0,1,2162.815,348.927Zm.867-46.211a.4.4,0,0,0,.079,0C2163.719,302.715,2163.695,302.715,2163.682,302.715Z" transform="translate(-2151.805 -297.321)" fill="#2c2826"/>
      </g>
      <g id="Group_1357" data-name="Group 1357" transform="translate(7.866 28.32)">
        <path id="Path_5353" data-name="Path 5353" d="M2158.814,276.264c28.986-.674,40.795-4.1,47.626,7.353s8.488,23.273,17.9,26.009a63.7,63.7,0,0,1-37.217-9.748s5.528,12.558,4.776,14.494c0,0-18.463-14.688-26.579-16.053s-10.562-4.057-10.562-4.057,1.524,13.832-2.658,21.73-2.5,20.3-.741,24.038c0,0-7.779-3.779-8.865-10.744s-10.633-7.568-12.712-9.228-11.833-14.5-10.943-16.646" transform="translate(-2118.78 -275.261)" fill="#2c2826"/>
      </g>
      <g id="Group_1358" data-name="Group 1358" transform="translate(70.621 68.371)">
        <path id="Path_5354" data-name="Path 5354" d="M2278,377.456s2.193-.846,2.906.844-2.482,2.8-2.482,2.8" transform="translate(-2277.606 -376.845)" fill="#fff" fill-rule="evenodd"/>
        <path id="Path_5355" data-name="Path 5355" d="M2277.823,380.892a.4.4,0,0,1-.13-.771c.506-.176,1.9-.807,2.243-1.591a.806.806,0,0,0,0-.682c-.559-1.321-2.323-.658-2.4-.629a.4.4,0,1,1-.286-.74c.882-.341,2.732-.558,3.415,1.06a1.589,1.589,0,0,1-.01,1.313c-.55,1.237-2.488,1.941-2.707,2.017A.39.39,0,0,1,2277.823,380.892Z" transform="translate(-2277.003 -376.239)" fill="#2c2826"/>
      </g>
      <g id="Group_1359" data-name="Group 1359" transform="translate(47.562 57.836)">
        <path id="Path_5356" data-name="Path 5356" d="M2226.946,352.2a2.3,2.3,0,0,0,1.281-.528,2.577,2.577,0,0,0,.614-1.936c-.109-.232-.327.263-1.705.105-1.354-.155-6.143-.04-8.162,4.029-.347.7.181.99.765.559A8.931,8.931,0,0,1,2226.946,352.2Z" transform="translate(-2218.863 -349.678)" fill="#2c2826" fill-rule="evenodd"/>
      </g>
      <g id="Group_1360" data-name="Group 1360" transform="translate(81.882 58.734)">
        <path id="Path_5357" data-name="Path 5357" d="M2307.325,354.462a2.3,2.3,0,0,1-1.282-.524,2.578,2.578,0,0,1-.62-1.934c.108-.232.328.262,1.706.1,1.353-.159,6.142-.059,8.175,4,.349.7-.178.991-.764.562A8.927,8.927,0,0,0,2307.325,354.462Z" transform="translate(-2305.393 -351.941)" fill="#2c2826" fill-rule="evenodd"/>
      </g>
      <g id="Group_1361" data-name="Group 1361" transform="translate(6.556 19.784)">
        <path id="Path_5358" data-name="Path 5358" d="M2128.1,292.091c6.585-11.536,15.676-21.927,47.1-25.22s33.758,10.657,33.758,10.657.1-17.248-19.951-21.411-47.071.718-60.437,22.344-12.049,30.012-12.049,30.012l1.844,5.787S2125.054,297.436,2128.1,292.091Z" transform="translate(-2116.089 -254.357)" fill="#fff"/>
        <path id="Path_5359" data-name="Path 5359" d="M2117.76,314.039h-.014a.4.4,0,0,1-.364-.276l-1.844-5.786a.345.345,0,0,1-.014-.059c-.055-.348-1.187-8.779,12.1-30.282,6.167-9.978,15.826-17.245,27.932-21.013a66.871,66.871,0,0,1,32.923-1.512c10.509,2.182,15.462,7.988,17.766,12.474a22.037,22.037,0,0,1,2.5,9.328.4.4,0,0,1-.788.063c-.005-.033-.634-3.406-5-6.349-7.368-4.97-19.473-4.907-28.329-3.979-31.91,3.344-40.617,14.2-46.8,25.023h0c-3,5.259-9.644,21.951-9.71,22.119A.4.4,0,0,1,2117.76,314.039Zm-1.455-6.27,1.5,4.7c1.5-3.741,6.755-16.652,9.348-21.193,6.282-11.006,15.118-22.035,47.4-25.418,13.129-1.376,22.862.023,28.928,4.16a14.066,14.066,0,0,1,4.191,4.269,22.709,22.709,0,0,0-2.147-6.373c-2.228-4.319-7.021-9.913-17.2-12.027-20.434-4.244-46.917.965-60.019,22.164C2115.523,298.729,2116.244,307.245,2116.3,307.77Z" transform="translate(-2115.478 -253.739)" fill="#2c2826"/>
      </g>
      <g id="Group_1367" data-name="Group 1367" transform="translate(38.765)">
        <g id="Group_1362" data-name="Group 1362" transform="translate(0 8.221)">
          <path id="Path_5360" data-name="Path 5360" d="M2204.891,225.906c-5.47,2.509-11.342,20.314-3.154,24.574,5.736,2.984,14.8,2,18.132-.252,3.925-2.654,9.579-14.97,8.2-17.009C2224.039,227.261,2207.938,224.508,2204.891,225.906Z" transform="translate(-2197.288 -225.167)" fill="#fff"/>
          <path id="Path_5361" data-name="Path 5361" d="M2209.879,252.153a19.74,19.74,0,0,1-8.93-1.9c-2.021-1.051-4.4-3.506-4.259-9.228.163-6.577,3.775-14.381,7.431-16.058h0c3.2-1.468,19.585,1.409,23.671,7.451,1.606,2.375-4.294,14.847-8.305,17.56C2217.609,251.246,2213.858,252.153,2209.879,252.153Zm-5.427-26.467c-3.363,1.543-6.815,9.15-6.969,15.357-.072,2.933.533,6.788,3.832,8.5,5.7,2.966,14.546,1.922,17.727-.229,3.77-2.55,9.3-14.677,8.093-16.459-3.885-5.745-19.853-8.473-22.683-7.175Z" transform="translate(-2196.684 -224.587)" fill="#2c2826"/>
        </g>
        <g id="Group_1363" data-name="Group 1363" transform="translate(3.751 6.426)">
          <path id="Path_5362" data-name="Path 5362" d="M2211.79,222.079c-5.47,2.509-7.231,11.108.957,15.368,5.736,2.984,14.8,2,18.132-.252,3.924-2.654,5.125-9.758-2.324-13.585C2222.157,220.324,2214.837,220.681,2211.79,222.079Z" transform="translate(-2206.745 -220.664)" fill="#fff"/>
          <path id="Path_5363" data-name="Path 5363" d="M2220.889,239.1a19.739,19.739,0,0,1-8.93-1.9c-3.783-1.968-5.9-5.115-5.816-8.633a8.462,8.462,0,0,1,4.877-7.447,16.919,16.919,0,0,1,7.311-1.026,24.261,24.261,0,0,1,9.8,2.565c3.452,1.773,5.455,4.444,5.639,7.52a7.706,7.706,0,0,1-3.274,6.746C2228.619,238.191,2224.868,239.1,2220.889,239.1Zm-9.538-17.261a7.662,7.662,0,0,0-4.415,6.746c-.08,3.2,1.884,6.087,5.388,7.91,5.7,2.966,14.546,1.922,17.727-.228a6.9,6.9,0,0,0,2.927-6.041c-.167-2.785-2.018-5.222-5.21-6.862-6.352-3.263-13.552-2.838-16.417-1.523Z" transform="translate(-2206.141 -220.061)" fill="#2c2826"/>
        </g>
        <g id="Group_1364" data-name="Group 1364" transform="translate(11.477 0.965)">
          <path id="Path_5364" data-name="Path 5364" d="M2231.779,207.465c-2.928,1.344-7.788,14.336-3.4,16.617,3.071,1.6,6.368,1.242,8.15.037,2.1-1.421,8.4-11.647,7.663-12.739C2242.031,208.19,2233.411,206.716,2231.779,207.465Z" transform="translate(-2226.224 -206.884)" fill="#fff"/>
          <path id="Path_5365" data-name="Path 5365" d="M2232.068,224.958a9.707,9.707,0,0,1-4.481-1.117c-1.344-.7-2.023-2.331-1.964-4.717.114-4.6,3.084-11.555,5.387-12.611h0c1.79-.819,10.614.669,12.9,4.053.566.838-1.186,4.092-2.756,6.674-1.658,2.726-3.851,5.829-5.014,6.615A7.415,7.415,0,0,1,2232.068,224.958Zm-.728-17.725c-2.171,1-4.829,8.056-4.924,11.91-.035,1.439.2,3.3,1.538,3.995a7.9,7.9,0,0,0,7.744.06c.881-.6,2.8-3.139,4.667-6.185,2.29-3.736,2.98-5.681,2.877-6.029-2.029-2.995-10.414-4.433-11.9-3.751Z" transform="translate(-2225.62 -206.292)" fill="#2c2826"/>
        </g>
        <g id="Group_1365" data-name="Group 1365" transform="translate(14.787)">
          <path id="Path_5366" data-name="Path 5366" d="M2237.453,205.416c-2.928,1.344-3.871,5.947.512,8.228,3.071,1.6,7.925,1.07,9.708-.135,2.1-1.421,2.744-5.224-1.244-7.273C2243,204.477,2239.084,204.668,2237.453,205.416Z" transform="translate(-2234.568 -204.469)" fill="#fff"/>
          <path id="Path_5367" data-name="Path 5367" d="M2242.036,214.419a10.744,10.744,0,0,1-4.858-1.034,5.315,5.315,0,0,1-3.212-4.79,4.715,4.715,0,0,1,2.718-4.15h0c1.691-.775,5.7-1.032,9.322.828a5.139,5.139,0,0,1,3.119,4.178,4.315,4.315,0,0,1-1.834,3.776A10.386,10.386,0,0,1,2242.036,214.419Zm-5.021-9.253a3.916,3.916,0,0,0-2.256,3.449,4.554,4.554,0,0,0,2.785,4.067c2.947,1.532,7.675.989,9.3-.112a3.506,3.506,0,0,0,1.487-3.072,4.382,4.382,0,0,0-2.689-3.52c-3.346-1.719-7.128-1.5-8.629-.812Z" transform="translate(-2233.964 -203.859)" fill="#2c2826"/>
        </g>
        <g id="Group_1366" data-name="Group 1366" transform="translate(17.3 1.697)">
          <path id="Path_5368" data-name="Path 5368" d="M2242.917,209.5c-1.9.873-2.515,3.863.332,5.344a7.517,7.517,0,0,0,6.305-.087c1.365-.923,1.782-3.394-.808-4.724A7.622,7.622,0,0,0,2242.917,209.5Z" transform="translate(-2240.904 -208.743)" fill="#fff"/>
          <path id="Path_5369" data-name="Path 5369" d="M2245.734,215.282a7.269,7.269,0,0,1-3.271-.7,3.585,3.585,0,0,1-2.161-3.238,3.2,3.2,0,0,1,1.846-2.819h0a7.965,7.965,0,0,1,6.176.54,3.411,3.411,0,0,1,2.1,2.83,2.943,2.943,0,0,1-1.252,2.575A6.6,6.6,0,0,1,2245.734,215.282Zm-3.254-6.032h0a2.4,2.4,0,0,0-1.384,2.118,2.823,2.823,0,0,0,1.735,2.514,7.154,7.154,0,0,0,5.9-.064,2.135,2.135,0,0,0,.9-1.871,2.716,2.716,0,0,0-1.672-2.172A7.212,7.212,0,0,0,2242.479,209.251Z" transform="translate(-2240.302 -208.138)" fill="#2c2826"/>
        </g>
      </g>
      <g id="Group_1373" data-name="Group 1373" transform="translate(71.258 2.401)">
        <g id="Group_1368" data-name="Group 1368" transform="translate(0 6.866)">
          <path id="Path_5370" data-name="Path 5370" d="M2285.64,228.534c-4.58,2.1-9.5,17.011-2.641,20.578,4.8,2.5,12.4,1.675,15.183-.211,3.286-2.223,8.021-12.535,6.866-14.243C2301.675,229.67,2288.192,227.364,2285.64,228.534Z" transform="translate(-2279.21 -227.834)" fill="#fff"/>
          <path id="Path_5371" data-name="Path 5371" d="M2289.718,250.452a16.592,16.592,0,0,1-7.5-1.6c-2.416-1.257-3.694-4.022-3.6-7.786.137-5.528,3.179-12.09,6.26-13.5h0c2.76-1.264,16.37,1.038,19.9,6.262.94,1.39-1.092,5.955-1.737,7.32-1.32,2.794-3.388,6.225-5.235,7.474C2296.222,249.688,2293.066,250.452,2289.718,250.452Zm-4.515-22.167h0c-2.8,1.283-5.669,7.625-5.8,12.8-.06,2.437.441,5.64,3.175,7.062,4.754,2.473,12.128,1.606,14.778-.187,1.412-.955,3.36-3.764,4.962-7.156,1.661-3.517,2.166-5.992,1.8-6.537C2300.877,229.48,2287.565,227.2,2285.2,228.285Z" transform="translate(-2278.607 -227.224)" fill="#2c2826"/>
        </g>
        <g id="Group_1369" data-name="Group 1369" transform="translate(3.141 5.38)">
          <path id="Path_5372" data-name="Path 5372" d="M2291.418,225.33c-4.58,2.1-6.055,9.3.8,12.869,4.8,2.5,12.4,1.675,15.183-.211,3.286-2.223,4.292-8.171-1.946-11.376C2300.1,223.861,2293.97,224.16,2291.418,225.33Z" transform="translate(-2287.13 -224.08)" fill="#fff"/>
          <path id="Path_5373" data-name="Path 5373" d="M2298.938,239.545a16.592,16.592,0,0,1-7.505-1.6c-3.19-1.66-4.978-4.316-4.9-7.288a7.149,7.149,0,0,1,4.121-6.293,14.193,14.193,0,0,1,6.152-.865,20.378,20.378,0,0,1,8.232,2.155c2.911,1.5,4.6,3.751,4.758,6.35a6.52,6.52,0,0,1-2.771,5.707C2305.441,238.781,2302.286,239.545,2298.938,239.545Zm-3.112-15.274a12.406,12.406,0,0,0-4.845.816h0a6.351,6.351,0,0,0-3.659,5.592c-.066,2.657,1.566,5.049,4.477,6.565,4.755,2.473,12.127,1.6,14.778-.188a5.713,5.713,0,0,0,2.423-5c-.139-2.309-1.676-4.33-4.329-5.692A19.651,19.651,0,0,0,2295.825,224.271Zm-5.01.456h0Z" transform="translate(-2286.526 -223.476)" fill="#2c2826"/>
        </g>
        <g id="Group_1370" data-name="Group 1370" transform="translate(9.611 0.811)">
          <path id="Path_5374" data-name="Path 5374" d="M2308.157,213.093c-2.452,1.125-6.522,12-2.851,13.915a6.984,6.984,0,0,0,6.825.031c1.76-1.19,7.036-9.752,6.417-10.667C2316.741,213.7,2309.523,212.466,2308.157,213.093Z" transform="translate(-2303.44 -212.546)" fill="#fff"/>
          <path id="Path_5375" data-name="Path 5375" d="M2308.3,227.714a8.192,8.192,0,0,1-3.781-.942c-1.148-.6-1.729-1.985-1.679-4.011.1-3.87,2.6-9.724,4.548-10.616,1.511-.692,8.954.562,10.884,3.417.4.586-.38,2.49-2.307,5.659-1.392,2.289-3.236,4.9-4.216,5.559A6.281,6.281,0,0,1,2308.3,227.714Zm.44-14.987a2.726,2.726,0,0,0-1.021.138h0c-1.534.7-3.992,6.143-4.086,9.915-.029,1.187.164,2.721,1.252,3.288a6.555,6.555,0,0,0,6.419.054c1.767-1.2,6.453-9.1,6.293-10.141C2316.156,213.9,2311.087,212.727,2308.74,212.727Zm8.855,3.237Zm-10.041-3.459h0Z" transform="translate(-2302.837 -211.958)" fill="#2c2826"/>
        </g>
        <g id="Group_1371" data-name="Group 1371" transform="translate(12.381)">
          <path id="Path_5376" data-name="Path 5376" d="M2312.908,211.377c-2.452,1.125-3.242,4.98.428,6.89,2.572,1.338,6.636.9,8.129-.113,1.76-1.19,2.3-4.374-1.042-6.09A9.827,9.827,0,0,0,2312.908,211.377Z" transform="translate(-2310.427 -210.52)" fill="#fff"/>
          <path id="Path_5377" data-name="Path 5377" d="M2316.646,218.9a9,9,0,0,1-4.1-.889,4.512,4.512,0,0,1-2.725-4.069,4.014,4.014,0,0,1,2.314-3.532h0a10.14,10.14,0,0,1,7.862.694,4.287,4.287,0,0,1,2.647,3.553,3.677,3.677,0,0,1-1.563,3.219A8.73,8.73,0,0,1,2316.646,218.9Zm-4.177-7.77a3.215,3.215,0,0,0-1.852,2.831,3.752,3.752,0,0,0,2.3,3.347c2.448,1.273,6.373.823,7.723-.09a2.871,2.871,0,0,0,1.217-2.514,3.612,3.612,0,0,0-2.218-2.895,9.423,9.423,0,0,0-7.169-.679Z" transform="translate(-2309.823 -209.912)" fill="#2c2826"/>
        </g>
        <g id="Group_1372" data-name="Group 1372" transform="translate(14.486 1.421)">
          <path id="Path_5378" data-name="Path 5378" d="M2317.483,214.793c-1.593.731-2.106,3.235.278,4.475a6.3,6.3,0,0,0,5.28-.073c1.143-.773,1.492-2.841-.677-3.956A6.381,6.381,0,0,0,2317.483,214.793Z" transform="translate(-2315.733 -214.099)" fill="#fff"/>
          <path id="Path_5379" data-name="Path 5379" d="M2319.741,219.6a6.15,6.15,0,0,1-2.767-.589,3.064,3.064,0,0,1-1.844-2.77,2.748,2.748,0,0,1,1.584-2.417h0a6.737,6.737,0,0,1,5.228.454,2.919,2.919,0,0,1,1.794,2.423,2.531,2.531,0,0,1-1.076,2.214A5.609,5.609,0,0,1,2319.741,219.6Zm-2.7-5.055h0a1.948,1.948,0,0,0-1.121,1.716,2.233,2.233,0,0,0,1.418,2.047,5.915,5.915,0,0,0,4.875-.05,1.724,1.724,0,0,0,.729-1.51,2.212,2.212,0,0,0-1.365-1.765A5.964,5.964,0,0,0,2317.045,214.549Z" transform="translate(-2315.13 -213.495)" fill="#2c2826"/>
        </g>
      </g>
      <g id="Group_1378" data-name="Group 1378" transform="translate(58.921 81.708)">
        <path id="Path_5380" data-name="Path 5380" d="M2248.5,413.789c.016-2.06,3.6-3.01,9.743-2.352,9.407,1.008,10.771-2.014,12.431.336,2.07,2.93-2.888,12.989-10.079,12.767C2254.541,424.354,2248.477,416.934,2248.5,413.789Z" transform="translate(-2248.105 -410.462)" fill="#2c2826" fill-rule="evenodd"/>
        <path id="Path_5381" data-name="Path 5381" d="M2260.231,424.343q-.124,0-.25,0c-6.257-.193-12.506-7.768-12.479-11.151h0a2.084,2.084,0,0,1,.752-1.583c1.4-1.25,4.751-1.663,9.43-1.161a27.259,27.259,0,0,0,9.081-.346c1.662-.323,2.667-.52,3.632.847s.63,4.067-.869,6.857C2267.815,420.989,2264.487,424.343,2260.231,424.343ZM2248.295,413.2c-.021,2.72,5.655,10.165,11.711,10.351,4,.128,7.189-3.079,8.823-6.118,1.317-2.45,1.7-4.927.921-6.024-.67-.948-1.172-.85-2.833-.526a27.975,27.975,0,0,1-9.317.355c-4.388-.47-7.6-.119-8.817.964a1.306,1.306,0,0,0-.487,1Z" transform="translate(-2247.502 -409.865)" fill="#2c2826"/>
        <g id="Group_1377" data-name="Group 1377" transform="translate(0.396 0.392)" clip-path="url(#clip-path)">
          <g id="Group_1374" data-name="Group 1374" transform="translate(3.137 8.342)">
            <path id="Path_5382" data-name="Path 5382" d="M2257.924,433.1a16.941,16.941,0,0,1,7.11.35c5.712,1.34,6.942,7.882,6.942,7.882s-5.2,1.044-8.856-.276S2256.1,434.256,2257.924,433.1Z" transform="translate(-2257.015 -432.494)" fill="#fff" fill-rule="evenodd"/>
            <path id="Path_5383" data-name="Path 5383" d="M2267.08,441.523a14.18,14.18,0,0,1-4.7-.695c-2.916-1.051-5.711-4.683-5.953-6.918a1.666,1.666,0,0,1,.679-1.746.386.386,0,0,1,.121-.051,17.22,17.22,0,0,1,7.291.349c5.9,1.383,7.228,8.127,7.241,8.2a.4.4,0,0,1-.311.462A24.422,24.422,0,0,1,2267.08,441.523Zm-9.6-8.652a1.006,1.006,0,0,0-.262.954c.214,1.972,2.815,5.314,5.433,6.258,2.932,1.056,6.959.537,8.237.331-.372-1.4-1.952-6.1-6.549-7.179A17.182,17.182,0,0,0,2257.48,432.87Z" transform="translate(-2256.412 -431.887)"/>
          </g>
          <g id="Group_1375" data-name="Group 1375" transform="translate(5.009 -0.8)">
            <path id="Path_5384" data-name="Path 5384" d="M2261.335,408.838s-.668,2.456.412,2.854,1.9.7,2.091-.148a18.11,18.11,0,0,0,.234-2.47l.671.247s-.649,2.184.022,2.446a2.21,2.21,0,0,0,1.95.121c.739-.341.692-1.878.692-1.878l.664.16s-.764,1.643.389,1.909,2.679.4,2.632-.417a13.13,13.13,0,0,1,.29-2.365s.071,2.958.611,3.157,2.154.4,2.393-.122.242-3.462.343-3.395S2261.335,408.838,2261.335,408.838Z" transform="translate(-2261.131 -408.838)" fill="#fff" fill-rule="evenodd"/>
          </g>
          <g id="Group_1376" data-name="Group 1376" transform="translate(1.885 7.824)">
            <path id="Path_5385" data-name="Path 5385" d="M2262.074,435.744s-3.454-6-7.821-3.6" transform="translate(-2253.857 -431.184)" fill="#fff" fill-rule="evenodd"/>
            <path id="Path_5386" data-name="Path 5386" d="M2261.471,435.538a.4.4,0,0,1-.344-.2,11.317,11.317,0,0,0-2.2-2.607c-1.728-1.464-3.438-1.746-5.086-.838a.4.4,0,0,1-.383-.695c4.652-2.565,8.319,3.681,8.356,3.745a.4.4,0,0,1-.343.595Z" transform="translate(-2253.253 -430.581)"/>
          </g>
        </g>
      </g>
      <g id="Group_1379" data-name="Group 1379" transform="translate(72.923 94.306)">
        <path id="Path_5389" data-name="Path 5389" d="M2282.8,441.629" transform="translate(-2282.805 -441.629)" fill="#fff" stroke="#000" stroke-linecap="round" stroke-linejoin="round" stroke-width="2" fill-rule="evenodd"/>
      </g>
      <g id="Group_1380" data-name="Group 1380" transform="translate(82.967 66.397)">
        <ellipse id="Ellipse_162" data-name="Ellipse 162" cx="3.257" cy="1.68" rx="3.257" ry="1.68" transform="matrix(0.046, -0.999, 0.999, 0.046, 0, 6.507)" fill="#2c2826"/>
      </g>
      <g id="Group_1381" data-name="Group 1381" transform="translate(51.711 67.458)">
        <path id="Path_5390" data-name="Path 5390" d="M2230.324,376.2a4.874,4.874,0,0,1,6.706.212" transform="translate(-2229.928 -374.535)" fill="#fff" fill-rule="evenodd"/>
        <path id="Path_5391" data-name="Path 5391" d="M2236.427,376.212a.392.392,0,0,1-.275-.111,4.453,4.453,0,0,0-6.168-.2.4.4,0,0,1-.526-.593c.036-.033,3.693-3.209,7.245.223a.4.4,0,0,1-.276.682Z" transform="translate(-2229.325 -373.938)" fill="#2c2826"/>
      </g>
    </g>
    <g id="Group_1383" data-name="Group 1383" transform="translate(2192.12 283.798)">
      <path id="Path_5392" data-name="Path 5392" d="M2382.7,413.914a9.52,9.52,0,0,1,1.149-.366,1.186,1.186,0,0,1,1.382.888c.187.641-.149,1-.693,1.234l-2.639,1.143c.12.487.383.939.266,1.244-.129.334-.6.539-.937.79-2.334,1.764-5.166,2.28-7.862,3.141-1.263.4-2.495.906-3.765,1.281-1.369.4-2.764.722-4.154,1.052a7.97,7.97,0,0,1-1.272.158c-3.423.242-3.911.81-7.754,9.506-.292.661-6.179,14.552-8.024,15.492,0,0-14.563.9-13.485.4,2.325-1.084,18.37-31.035,20.354-32.638a3.531,3.531,0,0,0,1.255-2.165,6.147,6.147,0,0,1,2.835-4.2c.039-.031,3.163-1.843,4.214-2.714a1.008,1.008,0,0,1,1.661.228c.959,1.319-.247,3.112-1.879,4.234-.673,1.3,2.224.307,3.3.041,2.205-.548,3.651-2.164,5.44-3.289,1.428-.9,2.84-1.823,4.289-2.685a1.956,1.956,0,0,1,1.215-.264,1.322,1.322,0,0,1,.872.676,1.107,1.107,0,0,1-.251.978c-.937.91-1.921,1.776-2.925,2.611-1.158.963-2.36,1.871-3.529,2.822-.123.1-.249.4-.194.476a1.858,1.858,0,0,0,.664.56c.143.067.391-.03.567-.108q4.858-2.132,9.706-4.284c.869-.388,1.379-.355,1.827.215.489.62.421,1.084-.252,1.5-1.561.963-3.132,1.912-4.7,2.868-.169.1-.332.218-.5.327A36.474,36.474,0,0,0,2382.7,413.914Z" transform="translate(-2334.46 -406.008)" fill="#fff"/>
      <path id="Path_5393" data-name="Path 5393" d="M2335.639,449.825c-1.667,0-1.705-.15-1.77-.4a.437.437,0,0,1,.273-.51c1.188-.554,7.287-11.064,11.74-18.738,4.712-8.12,7.645-13.134,8.531-13.849a3.139,3.139,0,0,0,1.115-1.936c.437-2.156,1.236-3.073,2.981-4.434.008-.007.092-.06.239-.146a38.918,38.918,0,0,0,3.967-2.56,1.536,1.536,0,0,1,1.176-.421,1.585,1.585,0,0,1,1.059.721,2.177,2.177,0,0,1,.381,1.687,5.2,5.2,0,0,1-2.253,3.035,9.234,9.234,0,0,0,2.3-.445c.218-.061.414-.115.571-.154a10.116,10.116,0,0,0,3.679-2.064c.526-.4,1.069-.813,1.645-1.176q.638-.4,1.271-.806c.985-.627,2-1.276,3.027-1.884a2.343,2.343,0,0,1,1.481-.315,1.718,1.718,0,0,1,1.173.911,1.486,1.486,0,0,1-.341,1.418c-.864.839-1.828,1.7-2.948,2.631-.658.548-1.34,1.085-2,1.6-.513.4-1.026.808-1.532,1.22a.339.339,0,0,0-.028.049,1.414,1.414,0,0,0,.383.3,1.168,1.168,0,0,0,.274-.1c3.156-1.385,6.419-2.817,9.7-4.282a1.711,1.711,0,0,1,2.3.331,1.445,1.445,0,0,1,.387,1.151,1.414,1.414,0,0,1-.743.932q-1.373.847-2.753,1.684c.372-.12.731-.24,1.033-.348l.148-.053a8.531,8.531,0,0,1,1.05-.327,1.586,1.586,0,0,1,1.849,1.165,1.325,1.325,0,0,1-.917,1.709l-2.314,1,.034.1a1.552,1.552,0,0,1,.118,1.064,1.785,1.785,0,0,1-.789.776c-.1.061-.193.123-.279.187a18.34,18.34,0,0,1-6.224,2.678c-.588.17-1.175.34-1.756.525-.546.175-1.1.372-1.632.563-.7.249-1.416.506-2.142.72-1.214.358-2.464.653-3.673.938l-.5.119a8.176,8.176,0,0,1-1.328.168c-3.147.223-3.549.494-7.427,9.271l-.126.292c-2.842,6.592-6.551,14.613-8.081,15.393a.4.4,0,0,1-.156.042c-.034,0-3.4.209-6.741.368C2338.36,449.766,2336.681,449.825,2335.639,449.825Zm-.472-.8c2.188.024,8.421-.293,12.509-.544.834-.568,3.254-4.766,7.652-14.964l.129-.3c3.909-8.846,4.438-9.483,8.088-9.741a7.764,7.764,0,0,0,1.209-.149l.5-.119c1.2-.283,2.437-.576,3.631-.927.7-.208,1.413-.461,2.1-.706.541-.194,1.1-.393,1.657-.572.589-.188,1.183-.36,1.778-.531a17.49,17.49,0,0,0,5.966-2.548c.1-.077.215-.15.33-.223.192-.123.431-.275.477-.394a1.569,1.569,0,0,0-.128-.516c-.055-.156-.111-.32-.153-.489a.4.4,0,0,1,.227-.459l2.64-1.143c.513-.222.561-.446.469-.758a.792.792,0,0,0-.917-.612,7.706,7.706,0,0,0-.951.3l-.15.054h0c-4.085,1.456-4.187,1.225-4.312.931a.4.4,0,0,1,.146-.487l.152-.1c.118-.08.236-.159.357-.232l1.609-.981q1.545-.941,3.087-1.887c.158-.1.351-.245.378-.4a.818.818,0,0,0-.229-.52c-.24-.3-.477-.489-1.355-.1-3.287,1.466-6.552,2.9-9.708,4.284a1.116,1.116,0,0,1-.9.1,2.251,2.251,0,0,1-.813-.681c-.249-.332.07-.867.261-1.022.51-.415,1.026-.821,1.542-1.229.656-.516,1.333-1.05,1.983-1.59,1.1-.918,2.053-1.766,2.9-2.591a.794.794,0,0,0,.162-.541.952.952,0,0,0-.57-.437,1.56,1.56,0,0,0-.948.213c-1.012.6-2.026,1.247-3.006,1.871q-.636.406-1.275.809c-.546.343-1.076.746-1.587,1.136a10.889,10.889,0,0,1-3.968,2.2c-.151.037-.34.09-.55.148-1.6.442-2.759.714-3.195.177a.8.8,0,0,1,0-.934.4.4,0,0,1,.127-.144,4.564,4.564,0,0,0,2.023-2.588,1.367,1.367,0,0,0-.24-1.087.851.851,0,0,0-.516-.4.812.812,0,0,0-.571.244,44.681,44.681,0,0,1-4.068,2.632l-.183.109a5.771,5.771,0,0,0-2.664,3.946,3.891,3.891,0,0,1-1.394,2.395c-.817.661-4.644,7.254-8.344,13.631C2340.984,440.195,2336.992,446.982,2335.167,449.028Zm46.931-35.717h0Zm-19.052-.965Z" transform="translate(-2333.857 -405.405)" fill="#2c2826"/>
    </g>
  </g>
</svg>
