<svg xmlns="http://www.w3.org/2000/svg" width="129.122" height="124.359" viewBox="0 0 129.122 124.359">
  <g id="Group_1352" data-name="Group 1352" transform="translate(-1507.38 -207.827)">
    <g id="Group_1348" data-name="Group 1348" transform="translate(1507.38 207.827)">
      <g id="Group_1325" data-name="Group 1325">
        <path id="Path_5310" data-name="Path 5310" d="M1553.273,309.215c-.07.739-13.752,10.421-18.7,11.448,0,0,3.307-15.8,1.474-12.468-4.458,8.114-21.416,5.928-21.416,5.928s12.783-10.094,8.394-16.421c0,0-10.938,6.925-15.039,6.912s14.125-9.537,7.4-21.359-3.031-40.273,13.344-51.787,6.854-23.642,6.854-23.642,9.923,13.38,9.079,14.42,10.413-7.6,10.056-11.735,3.406,7.407,3.406,7.407,30.5-6.153,43.091,13.751,18.769,23.1,22.442,23.406-17.333,3.257-20.89-1.4,8.2,24.138,17.043,27.721-18.857,2.31-19.832,1.925S1553.273,309.215,1553.273,309.215Z" transform="translate(-1507.38 -207.827)" fill="#2c2826" fill-rule="evenodd"/>
      </g>
      <g id="Group_1326" data-name="Group 1326" transform="translate(48 90.9)">
        <path id="Path_5311" data-name="Path 5311" d="M1627.614,432.486c.846,3.137-1.275,28.783-1.275,28.783s7.79,3.891,13.668,2.385c4.731-1.213,6.184-3.339,6.184-3.339a85.121,85.121,0,0,1,1.385-19.432C1649.58,429.975,1627.614,432.486,1627.614,432.486Z" transform="translate(-1625.932 -431.82)" fill="#fff" fill-rule="evenodd"/>
        <path id="Path_5312" data-name="Path 5312" d="M1636.421,463.8c-5.226,0-10.588-2.643-10.857-2.777a.407.407,0,0,1-.224-.4c.732-8.846,1.942-26.217,1.288-28.643a.408.408,0,0,1,.347-.51c.581-.067,14.3-1.571,18.989,3.451a5.959,5.959,0,0,1,1.419,5.423,85.587,85.587,0,0,0-1.38,19.329.406.406,0,0,1-.07.259c-.063.092-1.595,2.267-6.419,3.5A12.486,12.486,0,0,1,1636.421,463.8Zm-10.247-3.388c1.36.631,8.051,3.541,13.139,2.237,3.91-1,5.51-2.651,5.869-3.074a87.465,87.465,0,0,1,1.4-19.376,5.12,5.12,0,0,0-1.213-4.72c-3.968-4.247-15.484-3.455-17.869-3.241C1628.084,436.624,1626.4,457.591,1626.174,460.416Z" transform="translate(-1625.339 -431.213)" fill="#2c2826"/>
      </g>
      <g id="Group_1327" data-name="Group 1327" transform="translate(22.048 38.099)">
        <path id="Path_5313" data-name="Path 5313" d="M1572.169,353.221s2.164,10.228,11.059,15.284,17.111,7.51,30.323,4.556,22.642-17.192,24.879-34.409-1.144-23.168-1.144-23.168-23.554-12.78-25.034-13.027-37.3,3.843-37.668,3.808-12.022,16.772-12.022,16.772l.841,11.424s-.292,14.761,4.649,17.439S1572.169,353.221,1572.169,353.221Z" transform="translate(-1562.155 -302.043)" fill="#fff"/>
        <path id="Path_5314" data-name="Path 5314" d="M1602.353,374.162c-7.68,0-13.628-2.317-19.918-5.892-7.626-4.334-10.412-12.5-11.083-14.883-.553-.013-1.649-.4-4.085-1.716-5.1-2.765-4.875-17.192-4.863-17.8l-.839-11.386a.41.41,0,0,1,.071-.262c.03-.042,2.948-4.251,5.874-8.4,6.051-8.584,6.175-8.574,6.519-8.544.214-.009,3.635-.382,7.966-.856,14.493-1.583,28.726-3.115,29.731-2.949,1.5.251,22.744,11.76,25.161,13.071a.406.406,0,0,1,.16.157,16.866,16.866,0,0,1,1.459,5.266c.521,3.347.9,9.213-.265,18.155-2.366,18.219-12.255,31.861-25.193,34.753A48.9,48.9,0,0,1,1602.353,374.162ZM1572.034,352.8c.4,1.579,2.938,10.3,10.8,14.767,8.752,4.975,16.828,7.465,30.033,4.513,12.6-2.818,22.242-16.189,24.564-34.064,2.043-15.73-.642-21.987-1.046-22.817-9.436-5.119-23.746-12.742-24.8-12.923-1.047-.156-19.561,1.867-29.509,2.955-5.675.62-7.418.808-7.937.849-.906.961-7.43,10.244-11.76,16.489l.83,11.281c0,.183-.229,14.581,4.438,17.111a15.6,15.6,0,0,0,3.525,1.594.407.407,0,0,1,.746-.127A.755.755,0,0,1,1572.034,352.8Zm1.919-46.713a.5.5,0,0,0,.082,0C1573.993,306.084,1573.967,306.084,1573.953,306.083Z" transform="translate(-1561.563 -301.455)" fill="#2c2826"/>
      </g>
      <g id="Group_1328" data-name="Group 1328" transform="translate(8.853 29.356)">
        <path id="Path_5315" data-name="Path 5315" d="M1570.251,280.386c29.332-.024,41.354-3.225,48,8.518s8.057,23.731,17.511,26.712a64.442,64.442,0,0,1-37.42-10.7s5.306,12.828,4.5,14.769c0,0-18.34-15.275-26.518-16.84s-10.591-4.344-10.591-4.344,1.227,14.024-3.182,21.918-2.993,20.477-1.3,24.3c0,0-7.781-4-8.723-11.068s-10.583-7.9-12.647-9.622-11.638-14.936-10.69-17.084" transform="translate(-1529.135 -279.97)" fill="#2c2826"/>
      </g>
      <g id="Group_1329" data-name="Group 1329" transform="translate(54.414 66.894)">
        <ellipse id="Ellipse_160" data-name="Ellipse 160" cx="3.201" cy="1.787" rx="3.201" ry="1.787" transform="matrix(0.003, -1, 1, 0.003, 0, 6.403)" fill="#2c2826"/>
      </g>
      <g id="Group_1330" data-name="Group 1330" transform="translate(86.098 68.02)">
        <ellipse id="Ellipse_161" data-name="Ellipse 161" cx="3.201" cy="1.787" rx="3.201" ry="1.787" transform="matrix(0.003, -1, 1, 0.003, 0, 6.403)" fill="#2c2826"/>
      </g>
      <g id="Group_1331" data-name="Group 1331" transform="translate(72.044 69.81)">
        <path id="Path_5316" data-name="Path 5316" d="M1685.426,380.581s2.237-.807,2.921.92-2.574,2.778-2.574,2.778" transform="translate(-1685.02 -379.983)" fill="#fff" fill-rule="evenodd"/>
        <path id="Path_5317" data-name="Path 5317" d="M1685.18,384.087a.407.407,0,0,1-.125-.794,4.439,4.439,0,0,0,2.3-1.556.813.813,0,0,0,.02-.685c-.529-1.335-2.329-.713-2.405-.686a.407.407,0,0,1-.275-.766c.9-.325,2.781-.5,3.437,1.153a1.615,1.615,0,0,1-.041,1.332c-.586,1.242-2.563,1.91-2.787,1.983A.416.416,0,0,1,1685.18,384.087Z" transform="translate(-1684.427 -379.385)" fill="#2c2826"/>
      </g>
      <g id="Group_1332" data-name="Group 1332" transform="translate(51.359 53.769)">
        <path id="Path_5318" data-name="Path 5318" d="M1641.845,343.562a2.331,2.331,0,0,0,1.395.141,2.61,2.61,0,0,0,1.472-1.434c.013-.258-.418.078-1.572-.719-1.134-.784-5.46-2.967-9.2-.3-.645.461-.311.969.416.864A9.035,9.035,0,0,1,1641.845,343.562Z" transform="translate(-1633.593 -339.964)" fill="#2c2826" fill-rule="evenodd"/>
      </g>
      <g id="Group_1333" data-name="Group 1333" transform="translate(83.941 63.089)">
        <path id="Path_5319" data-name="Path 5319" d="M1716.464,366.281a2.328,2.328,0,0,1-1.4.072,2.611,2.611,0,0,1-1.4-1.5c0-.259.413.1,1.605-.641,1.171-.727,5.6-2.694,9.207.154.621.492.263.984-.458.842A9.037,9.037,0,0,0,1716.464,366.281Z" transform="translate(-1713.665 -362.868)" fill="#2c2826" fill-rule="evenodd"/>
      </g>
      <g id="Group_1334" data-name="Group 1334" transform="translate(67.864 88.945)">
        <path id="Path_5320" data-name="Path 5320" d="M1681.927,427.408a5.377,5.377,0,0,1-6.772.161" transform="translate(-1674.748 -427.001)" fill="#fff" fill-rule="evenodd"/>
        <path id="Path_5321" data-name="Path 5321" d="M1677.85,428.5a6,6,0,0,1-3.552-1.215.407.407,0,0,1,.526-.621,4.944,4.944,0,0,0,6.261-.174.407.407,0,1,1,.494.647A6.056,6.056,0,0,1,1677.85,428.5Z" transform="translate(-1674.154 -426.408)" fill="#2c2826"/>
      </g>
      <g id="Group_1335" data-name="Group 1335" transform="translate(7.149 20.512)">
        <path id="Path_5322" data-name="Path 5322" d="M1538.306,296.177c6.922-11.518,16.111-22.044,47.97-24.662s33.9,11.545,33.9,11.545.489-17.443-19.694-22.108-47.625-.342-61.635,21.228-12.868,30.081-12.868,30.081l1.734,5.895S1535.1,301.514,1538.306,296.177Z" transform="translate(-1525.549 -258.843)" fill="#fff"/>
        <path id="Path_5323" data-name="Path 5323" d="M1527.117,317.955h-.026a.407.407,0,0,1-.364-.291l-1.734-5.894a.4.4,0,0,1-.013-.061c-.047-.354-1-8.907,12.931-30.357,6.465-9.954,16.4-17.084,28.732-20.621a67.646,67.646,0,0,1,33.336-.781c20.272,4.686,20.013,22.339,20.008,22.516a.407.407,0,0,1-.809.047c-.005-.033-.565-3.458-4.909-6.532-7.338-5.192-19.579-5.4-28.557-4.666-14.478,1.189-25.323,4.112-33.157,8.934-7.2,4.434-11.225,10.086-14.5,15.531h0c-3.158,5.255-10.494,21.768-10.568,21.934A.406.406,0,0,1,1527.117,317.955Zm-1.333-6.38,1.412,4.8c1.655-3.692,7.438-16.479,10.163-21.013h0c6.683-11.12,15.916-22.2,48.286-24.858,13.31-1.094,23.125.543,29.169,4.866a14.255,14.255,0,0,1,4.129,4.389,22.973,22.973,0,0,0-2.022-6.464c-2.155-4.418-6.875-10.182-17.125-12.551-28.546-6.6-51.307,5.819-61.2,21.053C1525.253,302.332,1525.737,311.035,1525.784,311.575Z" transform="translate(-1524.95 -258.236)" fill="#2c2826"/>
      </g>
      <g id="Group_1341" data-name="Group 1341" transform="translate(40.814 0.372)">
        <g id="Group_1336" data-name="Group 1336" transform="translate(0 8.071)">
          <path id="Path_5324" data-name="Path 5324" d="M1616.34,229.845c-5.589,2.414-11.932,20.289-3.748,24.783,5.733,3.148,14.927,2.359,18.345.157,4.029-2.6,10.028-14.923,8.679-17.017C1635.677,231.651,1619.454,228.5,1616.34,229.845Z" transform="translate(-1608.274 -229.146)" fill="#fff"/>
          <path id="Path_5325" data-name="Path 5325" d="M1621.391,256.547a20.383,20.383,0,0,1-9.589-2.133c-2.022-1.11-4.375-3.649-4.1-9.435.315-6.65,4.146-14.464,7.884-16.079h0c3.271-1.412,19.783,1.87,23.78,8.076,1.571,2.439-4.68,14.925-8.8,17.58C1628.73,255.737,1625.193,256.547,1621.391,256.547Zm-5.484-26.9c-3.434,1.483-7.1,9.1-7.393,15.37-.14,2.962.385,6.874,3.68,8.683,5.7,3.128,14.664,2.275,17.929.172,3.87-2.493,9.735-14.626,8.557-16.455-3.8-5.9-19.88-9.016-22.773-7.769Z" transform="translate(-1607.679 -228.576)" fill="#2c2826"/>
        </g>
        <g id="Group_1337" data-name="Group 1337" transform="translate(4.024 6.358)">
          <path id="Path_5326" data-name="Path 5326" d="M1623.436,226.265c-5.589,2.414-7.566,11.071.619,15.565,5.733,3.148,14.927,2.359,18.345.157,4.029-2.6,5.406-9.753-2.042-13.793C1633.962,224.726,1626.55,224.921,1623.436,226.265Z" transform="translate(-1618.161 -224.958)" fill="#fff"/>
          <path id="Path_5327" data-name="Path 5327" d="M1632.855,243.728a20.39,20.39,0,0,1-9.589-2.133c-3.784-2.077-5.856-5.31-5.688-8.869a8.564,8.564,0,0,1,5.1-7.427h0a17.1,17.1,0,0,1,7.42-.872,24.543,24.543,0,0,1,9.856,2.818c3.453,1.873,5.419,4.621,5.536,7.739a7.8,7.8,0,0,1-3.468,6.754C1640.194,242.917,1636.657,243.728,1632.855,243.728ZM1623,226.046h0a7.745,7.745,0,0,0-4.615,6.718c-.153,3.236,1.767,6.195,5.267,8.116,5.7,3.128,14.663,2.275,17.929.172a6.973,6.973,0,0,0,3.094-6.039c-.106-2.819-1.921-5.324-5.11-7.054C1633.222,224.516,1625.932,224.783,1623,226.046Z" transform="translate(-1617.568 -224.365)" fill="#2c2826"/>
        </g>
        <g id="Group_1338" data-name="Group 1338" transform="translate(11.861 0.921)">
          <path id="Path_5328" data-name="Path 5328" d="M1643.332,212.15c-2.993,1.292-8.2,14.323-3.821,16.729,3.07,1.686,6.412,1.4,8.242.223,2.158-1.39,8.763-11.589,8.04-12.71C1653.684,213.117,1645,211.43,1643.332,212.15Z" transform="translate(-1637.42 -211.586)" fill="#fff"/>
          <path id="Path_5329" data-name="Path 5329" d="M1643.438,229.888a9.8,9.8,0,0,1-4.716-1.235c-1.346-.739-2-2.407-1.882-4.823.22-4.652,3.384-11.619,5.738-12.636h0c1.83-.791,10.725.918,12.964,4.394.556.863-1.292,4.117-2.939,6.694-1.739,2.72-4.028,5.809-5.222,6.579A7.427,7.427,0,0,1,1643.438,229.888Zm.535-18.09a2.956,2.956,0,0,0-1.072.143h0c-2.217.957-5.063,8.033-5.248,11.927-.068,1.453.129,3.34,1.462,4.071a7.988,7.988,0,0,0,7.826.237c.9-.581,2.9-3.108,4.855-6.144,2.4-3.723,3.144-5.676,3.049-6.032C1653.153,213.38,1646.756,211.8,1643.973,211.8Zm-1.234-.231h0Z" transform="translate(-1636.828 -211.004)" fill="#2c2826"/>
        </g>
        <g id="Group_1339" data-name="Group 1339" transform="translate(15.419)">
          <path id="Path_5330" data-name="Path 5330" d="M1649.179,210.234c-2.992,1.292-4.051,5.927.331,8.333,3.07,1.686,7.991,1.263,9.821.084,2.158-1.39,2.894-5.222-1.093-7.384C1654.814,209.409,1650.846,209.513,1649.179,210.234Z" transform="translate(-1646.165 -209.34)" fill="#fff"/>
          <path id="Path_5331" data-name="Path 5331" d="M1653.939,219.485a11.092,11.092,0,0,1-5.219-1.16,5.382,5.382,0,0,1-3.143-4.923,4.775,4.775,0,0,1,2.847-4.14c1.729-.747,5.793-.915,9.414,1.049a5.2,5.2,0,0,1,3.063,4.3,4.37,4.37,0,0,1-1.943,3.782A10.214,10.214,0,0,1,1653.939,219.485Zm-2.379-9.927a7.546,7.546,0,0,0-2.814.45h0a3.957,3.957,0,0,0-2.356,3.432,4.6,4.6,0,0,0,2.722,4.171c2.944,1.618,7.735,1.174,9.406.1a3.542,3.542,0,0,0,1.57-3.067,4.43,4.43,0,0,0-2.637-3.617A12.577,12.577,0,0,0,1651.561,209.557Zm-2.975.077h0Z" transform="translate(-1645.572 -208.741)" fill="#2c2826"/>
        </g>
        <g id="Group_1340" data-name="Group 1340" transform="translate(17.959 1.729)">
          <path id="Path_5332" data-name="Path 5332" d="M1654.505,214.306c-1.944.839-2.631,3.85.215,5.412a7.6,7.6,0,0,0,6.379.055c1.4-.9,1.88-3.391-.71-4.8A7.711,7.711,0,0,0,1654.505,214.306Z" transform="translate(-1652.405 -213.585)" fill="#fff"/>
          <path id="Path_5333" data-name="Path 5333" d="M1657.438,220.262a7.5,7.5,0,0,1-3.507-.781,3.631,3.631,0,0,1-2.115-3.329,3.245,3.245,0,0,1,1.935-2.814h0a8.06,8.06,0,0,1,6.239.686,3.455,3.455,0,0,1,2.064,2.915,2.981,2.981,0,0,1-1.327,2.581A6.5,6.5,0,0,1,1657.438,220.262Zm-3.365-6.177h0a2.427,2.427,0,0,0-1.445,2.105,2.766,2.766,0,0,0,1.694,2.577,7.23,7.23,0,0,0,5.963.069,2.152,2.152,0,0,0,.955-1.866,2.742,2.742,0,0,0-1.639-2.23A7.29,7.29,0,0,0,1654.073,214.085Z" transform="translate(-1651.812 -212.991)" fill="#2c2826"/>
        </g>
      </g>
      <g id="Group_1347" data-name="Group 1347" transform="translate(73.716 3.463)">
        <g id="Group_1342" data-name="Group 1342" transform="translate(0 6.741)">
          <path id="Path_5334" data-name="Path 5334" d="M1695.949,234.169c-4.68,2.022-9.992,16.989-3.139,20.753,4.8,2.636,12.5,1.975,15.362.131,3.374-2.173,8.4-12.5,7.268-14.25C1712.141,235.682,1698.557,233.043,1695.949,234.169Z" transform="translate(-1689.129 -233.502)" fill="#fff"/>
          <path id="Path_5335" data-name="Path 5335" d="M1700.082,256.474a17.134,17.134,0,0,1-8.059-1.792c-2.417-1.327-3.649-4.155-3.469-7.962.265-5.59,3.492-12.161,6.641-13.521h0c2.822-1.22,16.538,1.422,19.994,6.788.921,1.429-1.239,6-1.923,7.37-1.4,2.8-3.57,6.22-5.467,7.442C1706.258,255.791,1703.281,256.474,1700.082,256.474Zm-4.564-22.529c-2.857,1.234-5.9,7.58-6.151,12.813-.117,2.462.318,5.711,3.047,7.21,4.751,2.609,12.225,1.9,14.945.146,1.449-.933,3.482-3.729,5.179-7.122,1.759-3.516,2.326-6.007,1.967-6.564-3.167-4.918-16.575-7.525-18.987-6.481Z" transform="translate(-1688.537 -232.904)" fill="#2c2826"/>
        </g>
        <g id="Group_1343" data-name="Group 1343" transform="translate(3.368 5.323)">
          <path id="Path_5336" data-name="Path 5336" d="M1701.892,231.172c-4.681,2.021-6.336,9.27.518,13.034,4.8,2.636,12.5,1.975,15.362.131,3.374-2.173,4.526-8.167-1.71-11.55C1710.706,229.882,1704.5,230.046,1701.892,231.172Z" transform="translate(-1697.408 -230.011)" fill="#fff"/>
          <path id="Path_5337" data-name="Path 5337" d="M1709.68,245.763a17.143,17.143,0,0,1-8.06-1.792c-3.191-1.753-4.94-4.482-4.8-7.488a7.238,7.238,0,0,1,4.315-6.276h0a14.4,14.4,0,0,1,6.244-.737,20.621,20.621,0,0,1,8.281,2.367c2.913,1.58,4.571,3.9,4.67,6.536a6.6,6.6,0,0,1-2.934,5.714C1715.855,245.081,1712.879,245.763,1709.68,245.763Zm-3.729-15.529a12.044,12.044,0,0,0-4.491.719h0a6.42,6.42,0,0,0-3.824,5.568c-.127,2.684,1.468,5.139,4.376,6.736,4.752,2.61,12.226,1.9,14.945.146a5.772,5.772,0,0,0,2.562-5c-.088-2.336-1.6-4.414-4.245-5.851A19.916,19.916,0,0,0,1705.951,230.234Zm-4.653.346h0Z" transform="translate(-1696.814 -229.42)" fill="#2c2826"/>
        </g>
        <g id="Group_1344" data-name="Group 1344" transform="translate(9.931 0.774)">
          <path id="Path_5338" data-name="Path 5338" d="M1718.552,219.352c-2.506,1.082-6.869,11.994-3.2,14.009a7.066,7.066,0,0,0,6.9.186c1.807-1.164,7.338-9.7,6.733-10.643C1727.221,220.162,1719.948,218.749,1718.552,219.352Z" transform="translate(-1713.535 -218.818)" fill="#fff"/>
          <path id="Path_5339" data-name="Path 5339" d="M1718.544,234.181a8.271,8.271,0,0,1-3.98-1.042c-1.151-.632-1.708-2.05-1.611-4.1.185-3.914,2.856-9.781,4.845-10.639,1.545-.667,9.049.772,10.938,3.7.389.6-.439,2.514-2.461,5.677-1.46,2.284-3.385,4.879-4.393,5.529A6.28,6.28,0,0,1,1718.544,234.181Zm.464-15.152a2.451,2.451,0,0,0-.888.118h0c-1.566.676-4.174,6.12-4.354,9.93-.057,1.2.1,2.752,1.189,3.348a6.624,6.624,0,0,0,6.485.2c1.807-1.164,6.724-9.045,6.594-10.108C1726.592,220.337,1721.308,219.029,1719.009,219.029Zm9.023,3.472Zm-10.073-3.727h0Z" transform="translate(-1712.942 -218.24)" fill="#2c2826"/>
        </g>
        <g id="Group_1345" data-name="Group 1345" transform="translate(12.911)">
          <path id="Path_5340" data-name="Path 5340" d="M1723.448,217.747c-2.506,1.082-3.392,4.963.277,6.978,2.57,1.412,6.692,1.058,8.224.07,1.807-1.163,2.424-4.372-.915-6.183A9.941,9.941,0,0,0,1723.448,217.747Z" transform="translate(-1720.858 -216.934)" fill="#fff"/>
          <path id="Path_5341" data-name="Path 5341" d="M1727.327,225.481a9.28,9.28,0,0,1-4.391-1,4.569,4.569,0,0,1-2.667-4.183,4.066,4.066,0,0,1,2.424-3.525h0a10.266,10.266,0,0,1,7.942.881,4.343,4.343,0,0,1,2.6,3.658,3.727,3.727,0,0,1-1.657,3.225A8.61,8.61,0,0,1,1727.327,225.481Zm-4.312-7.957a3.247,3.247,0,0,0-1.934,2.817,3.789,3.789,0,0,0,2.246,3.431c2.445,1.343,6.422.977,7.808.085a2.9,2.9,0,0,0,1.285-2.51,3.647,3.647,0,0,0-2.174-2.973,9.531,9.531,0,0,0-7.231-.849Z" transform="translate(-1720.265 -216.337)" fill="#2c2826"/>
        </g>
        <g id="Group_1346" data-name="Group 1346" transform="translate(15.037 1.448)">
          <path id="Path_5342" data-name="Path 5342" d="M1727.908,221.158c-1.628.7-2.2,3.224.18,4.533a6.368,6.368,0,0,0,5.342.046c1.174-.756,1.574-2.84-.594-4.016A6.458,6.458,0,0,0,1727.908,221.158Z" transform="translate(-1726.083 -220.489)" fill="#fff"/>
          <path id="Path_5343" data-name="Path 5343" d="M1730.266,226.115a6.341,6.341,0,0,1-2.967-.661,3.1,3.1,0,0,1-1.806-2.849,2.785,2.785,0,0,1,1.66-2.414h0a6.823,6.823,0,0,1,5.283.578,2.958,2.958,0,0,1,1.763,2.5,2.567,2.567,0,0,1-1.141,2.221A5.525,5.525,0,0,1,1730.266,226.115Zm-2.79-5.177h0a1.966,1.966,0,0,0-1.17,1.7,2.254,2.254,0,0,0,1.385,2.1,5.972,5.972,0,0,0,4.926.06,1.738,1.738,0,0,0,.769-1.506,2.234,2.234,0,0,0-1.338-1.811A6.03,6.03,0,0,0,1727.476,220.938Z" transform="translate(-1725.49 -219.896)" fill="#2c2826"/>
        </g>
      </g>
    </g>
    <g id="Group_1351" data-name="Group 1351" transform="translate(1609.265 264.865)">
      <g id="Group_1349" data-name="Group 1349" transform="translate(0 0)">
        <path id="Path_5344" data-name="Path 5344" d="M1771.732,366.655a1.83,1.83,0,0,0,.461-2.23c-1.275-2.924-1.182-6.131-1.848-9.184-.254-1.162-.36-2.356-.57-3.528a2.211,2.211,0,0,1,.876-2.524,1.111,1.111,0,0,1,1.734.713c.893,3.066,1.826,6.12,2.755,9.176.188.616.423,1.218.754,2.163.383-1.515.738-2.759,1.006-4.022.325-1.532.569-3.082.867-4.62a5.124,5.124,0,0,1,.321-.967,1.589,1.589,0,0,1,2.091-1.13c1.061.358.649,1.194.586,1.9-.379,4.31-.766,8.619-.978,12.962a15.241,15.241,0,0,0,2.485-6.258,5.139,5.139,0,0,1,.7-2.194,2.134,2.134,0,0,1,1.647-.584c.762.048.532.762.528,1.305a32.634,32.634,0,0,1-2.471,11.01,27.429,27.429,0,0,0-1.678,7.976c-.079,1.459-4.127,23.592-4.665,26.852-.62,3.757-1.11,7.536-1.7,11.3-.044.281-.467.717-.716.719-4.658.032-8.095.009-12.753-.005-.024,0-.049-.035-.142-.107.129-.283.268-.584.4-.887a108.59,108.59,0,0,0,7.371-23.332c.485-2.49.02-4.982-2.373-6.669a9.086,9.086,0,0,1-1.688-1.913c-.865-1.1-1.7-2.223-2.531-3.347a7.712,7.712,0,0,1-.71-1.117c-.838-1.665-1.625-3.355-2.488-5.006a1.647,1.647,0,0,1,.2-1.992,4.835,4.835,0,0,0,1.316-3.34c-.009-.783.562-1.169,1.407-1.133a1.8,1.8,0,0,0,1.032-.319q1.545-1.09,3.019-2.28a1.462,1.462,0,0,1,1.808-.069c.761.449,1.478.976,2.209,1.476C1770.579,365.847,1771.155,366.253,1771.732,366.655Zm-1.972,6.319c-1.061-2.972-.817-3.387-2.356-4.442-.285-.195-1.045.01-1.255.142a4.069,4.069,0,0,0-.78,1.078,8.642,8.642,0,0,0-1.2,2.739c.656,1.582,1.268,2.18,2.234,1.886A33.979,33.979,0,0,0,1769.76,372.974Z" transform="translate(-1758.355 -348.592)" fill="#fff"/>
        <path id="Path_5345" data-name="Path 5345" d="M1768.567,415.318c-1.833,0-3.6-.006-5.507-.013l-2.491-.008a.478.478,0,0,1-.324-.138c-.016-.013-.036-.031-.065-.053a.407.407,0,0,1-.123-.492l.113-.246c.095-.208.193-.422.289-.638a108.662,108.662,0,0,0,7.343-23.245c.534-2.743-.209-4.849-2.208-6.258a6.8,6.8,0,0,1-1.438-1.553c-.111-.149-.222-.3-.336-.441-.892-1.134-1.767-2.315-2.539-3.356a8.052,8.052,0,0,1-.747-1.177c-.33-.658-.654-1.32-.977-1.981-.486-.995-.988-2.024-1.509-3.018a2.054,2.054,0,0,1,.255-2.446,4.4,4.4,0,0,0,1.218-3.069,1.462,1.462,0,0,1,.422-1.1,1.834,1.834,0,0,1,1.408-.447,1.467,1.467,0,0,0,.78-.244c.99-.7,2-1.461,3-2.264a1.861,1.861,0,0,1,2.27-.1c.578.341,1.132.727,1.669,1.1.187.13.375.261.563.389.415.283.827.571,1.238.859l.2.14a1.353,1.353,0,0,0,.155-1.524,21.5,21.5,0,0,1-1.359-5.988c-.137-1.081-.28-2.2-.514-3.272-.153-.7-.254-1.414-.352-2.105-.068-.481-.136-.961-.221-1.438a2.6,2.6,0,0,1,1.088-2.956,1.512,1.512,0,0,1,2.313.959c.805,2.764,1.657,5.565,2.481,8.274l.273.9c.088.288.186.573.3.9.009-.034.017-.068.026-.1.238-.911.463-1.772.643-2.621.195-.914.363-1.854.526-2.762.111-.617.221-1.235.341-1.85a5.449,5.449,0,0,1,.344-1.046,2,2,0,0,1,2.6-1.36c1.19.4,1.02,1.366.918,1.943-.023.128-.046.256-.057.379l-.051.584c-.309,3.513-.627,7.13-.838,10.733a14.272,14.272,0,0,0,1.589-4.71,5.464,5.464,0,0,1,.774-2.371,2.5,2.5,0,0,1,2-.752.982.982,0,0,1,.712.315,1.46,1.46,0,0,1,.213,1.116c-.007.1-.016.192-.016.283a33.325,33.325,0,0,1-2.495,11.147,27.19,27.19,0,0,0-1.654,7.858c-.054,1-1.825,10.91-3.249,18.873-.667,3.727-1.242,6.945-1.42,8.023-.343,2.082-.652,4.206-.951,6.262-.24,1.65-.488,3.357-.753,5.033a1.419,1.419,0,0,1-1.115,1.062C1771.618,415.314,1770.069,415.318,1768.567,415.318Zm-7.554-.833,2.05.007c3.471.013,6.47.023,10.258,0a.965.965,0,0,0,.317-.378c.264-1.67.512-3.373.751-5.021.3-2.059.609-4.188.954-6.277.179-1.084.754-4.3,1.421-8.034,1.345-7.522,3.187-17.824,3.238-18.774a28.007,28.007,0,0,1,1.7-8.094,32.6,32.6,0,0,0,2.446-10.873c0-.109.01-.225.019-.341a1.281,1.281,0,0,0-.017-.519.268.268,0,0,0-.149-.036,1.79,1.79,0,0,0-1.29.415,4.8,4.8,0,0,0-.63,2.017,15.591,15.591,0,0,1-2.548,6.423.407.407,0,0,1-.746-.245c.2-4.155.572-8.343.928-12.394l.051-.584c.013-.146.039-.3.065-.448.114-.648.127-.861-.377-1.031-.707-.238-1.24.065-1.585.9a4.8,4.8,0,0,0-.3.889c-.118.612-.228,1.226-.338,1.839-.164.915-.334,1.86-.531,2.788-.184.867-.411,1.736-.652,2.657-.115.438-.234.895-.357,1.379a.406.406,0,0,1-.376.307.4.4,0,0,1-.4-.272c-.115-.328-.218-.614-.312-.873-.18-.5-.322-.894-.448-1.306l-.272-.9c-.825-2.711-1.677-5.515-2.484-8.283a.841.841,0,0,0-.422-.565.89.89,0,0,0-.732.1c-.6.316-.846,1.078-.664,2.092.087.487.157.977.226,1.468.1.676.194,1.375.341,2.045.242,1.107.387,2.244.526,3.343a20.859,20.859,0,0,0,1.3,5.766,2.23,2.23,0,0,1-.542,2.675.406.406,0,0,1-.525.051l-.5-.35c-.409-.286-.818-.573-1.23-.854-.19-.13-.38-.262-.57-.394-.524-.365-1.066-.742-1.617-1.067a1.061,1.061,0,0,0-1.346.036c-1.012.814-2.035,1.586-3.039,2.3a2.2,2.2,0,0,1-1.284.393,1.1,1.1,0,0,0-.807.218.662.662,0,0,0-.175.5,5.227,5.227,0,0,1-1.414,3.609,1.25,1.25,0,0,0-.152,1.539c.526,1,1.031,2.039,1.519,3.039.322.659.643,1.318.973,1.973a7.246,7.246,0,0,0,.674,1.057c.768,1.037,1.639,2.213,2.524,3.338.117.149.232.3.347.456a6.2,6.2,0,0,0,1.255,1.376c2.252,1.589,3.13,4.036,2.537,7.08a109.425,109.425,0,0,1-7.4,23.419C1761.14,414.2,1761.076,414.345,1761.012,414.485Zm-.442,0h0Zm4.778-40.219c-1.068,0-1.666-1.046-2.149-2.212a.4.4,0,0,1-.008-.29c.087-.251.155-.465.217-.66a7.012,7.012,0,0,1,1.031-2.17c.047-.071.1-.16.157-.257a2.733,2.733,0,0,1,.745-.94,1.982,1.982,0,0,1,1.7-.133c1.289.883,1.466,1.44,1.938,2.926.144.452.322,1.015.571,1.714a.406.406,0,0,1-.222.511c-.331.142-.661.293-.991.444a19.54,19.54,0,0,1-2.41.975A1.963,1.963,0,0,1,1765.349,374.265Zm-1.338-2.383c.709,1.649,1.2,1.657,1.679,1.511a19,19,0,0,0,2.309-.937c.22-.1.439-.2.66-.3-.19-.549-.335-1-.455-1.383-.467-1.471-.564-1.777-1.622-2.5a1.611,1.611,0,0,0-.809.151,2.628,2.628,0,0,0-.476.662c-.066.112-.127.215-.181.3a6.282,6.282,0,0,0-.932,1.963C1764.133,371.51,1764.078,371.685,1764.011,371.882Z" transform="translate(-1757.763 -347.998)" fill="#2c2826"/>
      </g>
      <g id="Group_1350" data-name="Group 1350" transform="translate(3.199 17.092)">
        <path id="Path_5346" data-name="Path 5346" d="M1768,391s-2.442,2.035-.814,3.662c.814.814,2.493.469,3.255-.814" transform="translate(-1766.218 -390.593)" fill="#fff"/>
        <path id="Path_5347" data-name="Path 5347" d="M1767.74,394.915a2,2,0,0,1-1.436-.558,2.126,2.126,0,0,1-.676-1.645,4.332,4.332,0,0,1,1.517-2.618.407.407,0,0,1,.522.625,3.57,3.57,0,0,0-1.226,2.032,1.329,1.329,0,0,0,.439,1.03,1.269,1.269,0,0,0,1.071.306,2.168,2.168,0,0,0,1.547-1.04.407.407,0,0,1,.7.416,2.954,2.954,0,0,1-2.145,1.432A2.468,2.468,0,0,1,1767.74,394.915Z" transform="translate(-1765.625 -390.001)"/>
      </g>
    </g>
  </g>
</svg>
