<svg xmlns="http://www.w3.org/2000/svg" width="38.764" height="31.496" viewBox="0 0 38.764 31.496">
  <path id="twitter" d="M38.764,51.729a16.569,16.569,0,0,1-4.579,1.255,7.9,7.9,0,0,0,3.5-4.392,15.882,15.882,0,0,1-5.039,1.924A7.946,7.946,0,0,0,18.9,55.949a8.183,8.183,0,0,0,.184,1.812A22.494,22.494,0,0,1,2.7,49.449,7.949,7.949,0,0,0,5.141,60.07a7.848,7.848,0,0,1-3.591-.979v.087a7.984,7.984,0,0,0,6.367,7.809,7.932,7.932,0,0,1-2.084.262,7.027,7.027,0,0,1-1.5-.136,8.023,8.023,0,0,0,7.426,5.536A15.968,15.968,0,0,1,1.9,76.039,14.885,14.885,0,0,1,0,75.929,22.373,22.373,0,0,0,12.191,79.5c14.624,0,22.619-12.114,22.619-22.614,0-.351-.012-.69-.029-1.027A15.854,15.854,0,0,0,38.764,51.729Z" transform="translate(0 -48)" fill="#10161a"/>
</svg>
