<svg xmlns="http://www.w3.org/2000/svg" width="46.268" height="35.112" viewBox="0 0 46.268 35.112">
  <path id="Path_6784" data-name="Path 6784" d="M46.714,24.606A39.356,39.356,0,0,0,42.308,7.713c-.734-1.375-1.582-2.688-2.4-4.019a1.166,1.166,0,0,0-.5-.417A38.1,38.1,0,0,0,30.543.515a.414.414,0,0,0-.525.271c-.281.6-.6,1.176-.858,1.783-.131.309-.293.365-.608.344A56.664,56.664,0,0,0,18.9,2.906c-.349.034-.53-.021-.676-.372-.252-.609-.585-1.182-.87-1.777a.389.389,0,0,0-.5-.242A38.146,38.146,0,0,0,7.947,3.292a1.167,1.167,0,0,0-.462.394C2.935,10.523-.17,19.306.624,27.623c.056.593.091,1.192.182,1.781a.939.939,0,0,0,.312.578,38.065,38.065,0,0,0,10.988,5.581c.291.093.462.068.63-.2.747-1.208,1.515-2.406,2.3-3.642l-3.92-1.9c.584-.788.833-.852,1.585-.536a27.134,27.134,0,0,0,21.959.014c.8-.341.927-.314,1.6.486-.643.339-1.261.686-1.9.992s-1.278.567-2.01.887c.653,1.07,1.254,2.1,1.9,3.11.6.937.625.929,1.674.576a37.706,37.706,0,0,0,10.349-5.361.947.947,0,0,0,.315-.579,25.4,25.4,0,0,0,.124-4.8M18.825,23.27a3.8,3.8,0,0,1-5.419.129,5.018,5.018,0,0,1,.076-7.234A3.967,3.967,0,0,1,19.9,18.081a14.114,14.114,0,0,1,.363,1.7,5.245,5.245,0,0,1-1.437,3.483m15.345,0a3.808,3.808,0,0,1-5.485.075,5.029,5.029,0,0,1,.027-7.083,3.972,3.972,0,0,1,6.525,1.815,5.993,5.993,0,0,1,.231.913,6.634,6.634,0,0,1,.06.714,4.9,4.9,0,0,1-1.358,3.566" transform="translate(-0.5 -0.5)" fill="#10161a" fill-rule="evenodd"/>
</svg>
