<?xml version="1.0" encoding="utf-8"?>
<!-- Generator: Adobe Illustrator 23.0.1, SVG Export Plug-In . SVG Version: 6.00 Build 0)  -->
<svg version="1.1" id="Capa_1" xmlns="http://www.w3.org/2000/svg" xmlns:xlink="http://www.w3.org/1999/xlink" x="0px" y="0px"
	 viewBox="0 0 383 296" style="enable-background:new 0 0 383 296;" xml:space="preserve">
<g>
	<g>
		<g>
			<path d="M364.4,124H18.6C8.4,124,0,134.8,0,148s8.4,24,18.6,24h345.7c10.3,0,18.6-10.8,18.6-24S374.6,124,364.4,124L364.4,124z"
				/>
		</g>
	</g>
</g>
<g>
	<g>
		<g>
			<path d="M364.4,0H18.6C8.4,0,0,10.8,0,24s8.4,24,18.6,24h345.7c10.3,0,18.6-10.8,18.6-24S374.6,0,364.4,0L364.4,0z"/>
		</g>
	</g>
</g>
<g>
	<g>
		<g>
			<path d="M364.4,248H18.6C8.4,248,0,258.8,0,272s8.4,24,18.6,24h345.7c10.3,0,18.6-10.8,18.6-24S374.6,248,364.4,248L364.4,248z"
				/>
		</g>
	</g>
</g>
</svg>
