<?xml version="1.0" encoding="utf-8"?>
<!-- Generator: Adobe Illustrator 24.0.1, SVG Export Plug-In . SVG Version: 6.00 Build 0)  -->
<svg version="1.1" id="Layer_1" xmlns="http://www.w3.org/2000/svg" xmlns:xlink="http://www.w3.org/1999/xlink" x="0px" y="0px"
	 width="20px" height="20px" viewBox="0 0 20 20" style="enable-background:new 0 0 20 20;" xml:space="preserve">
<path d="M1.1,16.4V3.6C1.1,2.2,2.3,1,3.7,1h0c1.5,0,2.6,1.2,2.6,2.6v12.7c0,1.5-1.2,2.6-2.6,2.6h0C2.3,19,1.1,17.8,1.1,16.4z"/>
<g>
	<path d="M10,2c0.9,0,1.6,0.7,1.6,1.6v12.7c0,0.9-0.7,1.6-1.6,1.6H10c-0.9,0-1.6-0.7-1.6-1.6V3.6C8.3,2.7,9.1,2,10,2L10,2 M10,1
		L10,1C8.5,1,7.3,2.2,7.3,3.6v12.7c0,1.5,1.2,2.6,2.6,2.6H10c1.5,0,2.6-1.2,2.6-2.6V3.6C12.7,2.2,11.5,1,10,1L10,1z"/>
</g>
<g>
	<path d="M16.4,2C17.3,2,18,2.7,18,3.6v12.7c0,0.9-0.7,1.6-1.6,1.6h-0.1c-0.9,0-1.6-0.7-1.6-1.6V3.6C14.7,2.7,15.4,2,16.4,2L16.4,2
		 M16.4,1L16.4,1c-1.5,0-2.7,1.2-2.7,2.6v12.7c0,1.5,1.2,2.6,2.6,2.6h0.1c1.5,0,2.6-1.2,2.6-2.6V3.6C19,2.2,17.8,1,16.4,1L16.4,1z"
		/>
</g>
</svg>
